<svg version="1.1" xmlns="http://www.w3.org/2000/svg" x="0" y="0" viewBox="0 0 124.1 124.1" xml:space="preserve" enable-background="new 0 0 124.1 124.1"><circle cx="62" cy="62" r="60" fill="#f2e3ee"/><circle cx="62" cy="62" r="62" fill="#d9327c"/><path d="M59.6 32.7c-.5.4-1.1 1.1-1.5 2.4a912 912 0 0 1-5.4 15.7h18.7L66 35.1c-.4-1.3-1-2-1.5-2.4-.5-.4-1.2-.7-2.5-.7s-1.9.3-2.4.7zM32 50.8h12.7l6.2-18.1a12 12 0 0 1 4.1-6c2-1.5 4.4-2.2 6.9-2.2s4.9.6 6.9 2.2a12 12 0 0 1 4.1 6l6.2 18.1H92a3.8 3.8 0 1 1 0 7.6H32c-2.1 0-3.7-1.7-3.7-3.8s1.7-3.8 3.7-3.8zm0 15c-2.1 0-3.7 1.7-3.7 3.8s1.7 3.8 3.7 3.8h5l-2 5.8-2 5.8-.8 2.2c-.7 2 .4 4.1 2.3 4.8 2 .7 4.1-.4 4.8-2.3l.8-2.2 2-5.8 2.9-8.3h34.2l2.9 8.3 2 5.8.8 2.2c.7 2 2.8 3 4.8 2.3 2-.7 3-2.8 2.3-4.8l-.8-2.2-2-5.8-2-5.8h5a3.8 3.8 0 1 0 0-7.6H32zm56.3 22.5 3.5-1.2-3.5 1.2zm0 0-3.5 1.2 3.5-1.2zm-52.5 0 3.5 1.2-3.5-1.2zm0 0-3.5-1.2 3.5 1.2z" fill-rule="evenodd" clip-rule="evenodd" fill="#fff"/></svg>