<?xml version="1.0" encoding="UTF-8" standalone="no"?>
<svg
   id="svg"
   width="299.42276"
   height="299.67889"
   viewBox="0 0 299.42276 299.67889"
   version="1.1"
   sodipodi:docname="AXS.svg"
   inkscape:version="1.1 (c68e22c387, 2021-05-23)"
   xmlns:inkscape="http://www.inkscape.org/namespaces/inkscape"
   xmlns:sodipodi="http://sodipodi.sourceforge.net/DTD/sodipodi-0.dtd"
   xmlns="http://www.w3.org/2000/svg"
   xmlns:svg="http://www.w3.org/2000/svg">
  <defs
     id="defs8" />
  <sodipodi:namedview
     id="namedview6"
     pagecolor="#ffffff"
     bordercolor="#666666"
     borderopacity="1.0"
     inkscape:pageshadow="2"
     inkscape:pageopacity="0.0"
     inkscape:pagecheckerboard="0"
     showgrid="false"
     inkscape:zoom="2.9380287"
     inkscape:cx="131.04024"
     inkscape:cy="184.8178"
     inkscape:window-width="3440"
     inkscape:window-height="1372"
     inkscape:window-x="0"
     inkscape:window-y="0"
     inkscape:window-maximized="1"
     inkscape:current-layer="svg" />
  <g
     id="svgg"
     transform="translate(-49.624883,-49.627676)">
    <path
       id="path1"
       d="m 88.05596,229.30324 36.39274,59.7156 78.12481,9.43887 81.08026,-7.25202 34.79364,-98.17265 -55.62485,-71.40999 -60.53888,4.33694 -71.31105,-2.79018 -36.710339,68.71064 M 211.29894,72.576553 c 103.928,8.893 149.17673,91.677197 103.25073,185.604197 -50.704,103.7 -146.01835,107.03521 -209.58535,11.00221 C 35.629318,164.43396 83.241185,68.95501 208.52019,79.67501 M 267.4,137.761 c -4.518,1.432 -7.194,3.536 -18.8,14.779 -47.199,45.722 -88.606,82.542 -98.364,87.467 -9.698,4.895 -14.748,-4.899 -17.469,-33.875 -1.928,-20.537 0.303,-32.081 6.525,-33.757 2.116,-0.569 3.734,-0.181 9.708,2.328 10.767,4.524 10.747,4.914 -0.8,15.161 -8.054,7.148 -9.869,9.301 -10.561,12.529 -0.898,4.187 1.167,8.407 4.113,8.407 2.359,0 3.496,-0.922 18.397,-14.92 9.006,-8.459 10.318,-8.627 16.634,-2.132 3.795,3.904 6.028,3.876 9.729,-0.122 6.859,-7.409 5.368,-10.81 -8.112,-18.512 -11.285,-6.448 -45.558,-25.577 -48.51,-27.075 -10.308,-5.23 -15.416,1.524 -16.302,21.561 -2.02,45.656 3.523,87.073 12.818,95.767 6.581,6.156 16.583,0.32 46.594,-27.189 2.2,-2.017 9.49,-8.686 16.2,-14.82 14.656,-13.399 25.841,-24.329 36.146,-35.323 20.66,-22.041 30.545,-28.05 37.085,-22.547 7.39,6.218 11.641,54.135 5.715,64.413 -4.009,6.952 -9.389,4.691 -40.885,-17.185 -5.527,-3.838 -9.629,-2.588 -13.002,3.964 -2.212,4.296 -0.796,5.492 27.345,23.078 31.987,19.99 43.694,22.298 47.075,9.279 2.634,-10.14 0.489,-63.702 -3.51,-87.637 -3.056,-18.292 -9.133,-26.377 -17.769,-23.639"
       stroke="none"
       fill="#fbfbfc"
       fill-rule="evenodd"
       sodipodi:nodetypes="cccccccccccccccccccccscccccccccccccccccc" />
    <path
       id="path0"
       d="M 185.154,50.22 C 114.51,56.15 56.247,114.598 50.206,185.6 40.221,302.947 160.803,385.451 266.2,333.385 357.553,288.257 377.486,165.807 305.24,93.56 273.17,61.491 231.227,46.353 185.154,50.22 m 89.167,88.015 c 9.684,4.826 13.66,26.376 15.329,83.088 0.626,21.258 0.161,26.916 -2.597,31.623 -4.822,8.228 -16.693,4.783 -45.449,-13.188 -28.141,-17.586 -29.557,-18.782 -27.345,-23.078 3.373,-6.552 7.475,-7.802 13.002,-3.964 31.496,21.876 36.876,24.137 40.885,17.185 5.926,-10.278 1.675,-58.195 -5.715,-64.413 -6.54,-5.503 -16.425,0.506 -37.085,22.547 -10.305,10.994 -21.49,21.924 -36.146,35.323 -6.71,6.134 -14,12.803 -16.2,14.82 -30.011,27.509 -40.013,33.345 -46.594,27.189 -9.295,-8.694 -14.838,-50.111 -12.818,-95.767 0.886,-20.037 5.994,-26.791 16.302,-21.561 2.952,1.498 37.225,20.627 48.51,27.075 13.48,7.702 14.971,11.103 8.112,18.512 -3.701,3.998 -5.934,4.026 -9.729,0.122 -6.316,-6.495 -7.628,-6.327 -16.634,2.132 -14.901,13.998 -16.038,14.92 -18.397,14.92 -2.946,0 -5.011,-4.22 -4.113,-8.407 0.692,-3.228 2.507,-5.381 10.561,-12.529 11.547,-10.247 11.567,-10.637 0.8,-15.161 -5.974,-2.509 -7.592,-2.897 -9.708,-2.328 -6.222,1.676 -8.453,13.22 -6.525,33.757 2.721,28.976 7.771,38.77 17.469,33.875 9.758,-4.925 51.165,-41.745 98.364,-87.467 15.433,-14.95 19.683,-17.313 25.721,-14.305"
       stroke="none"
       fill="#0453d4"
       fill-rule="evenodd" />
  </g>
</svg>
