<svg width="32" height="32" xmlns="http://www.w3.org/2000/svg"><g fill="none"><circle cx="16" cy="16" r="16" fill="#EAB304"/><path d="m22.1 14.6.1-.2s0-.1.2 0a.6.6 0 0 0 0-.3.4.4 0 0 0 0-.2 1.7 1.7 0 0 1-.1-1.1.3.3 0 0 0 0-.2.3.3 0 0 1 .1 0 .3.3 0 0 1 0 .2c0 .1.2 0 .2 0a1 1 0 0 1 .2-.2 1.4 1.4 0 0 0 0-.5 1.7 1.7 0 0 1 0-1.1v.1l.4.7.5.8v.1l.8.5.7.7a.5.5 0 0 1 0 .1h.1a6.2 6.2 0 0 0 0-.7c0-.1.1-.3.3-.3h.1a.4.4 0 0 1 .3-.4.4.4 0 0 1 0 .4c.1.2.2.3 0 .5s0 .2 0 .4a.9.9 0 0 1 .1-.3c0-.1 0-.3.2-.3a.2.2 0 0 1 .1 0 .9.9 0 0 0 .4 0 .3.3 0 0 1 .3.2l-.3.1-.1.3a1.5 1.5 0 0 0-.2.2 3.4 3.4 0 0 0 .4 0 .4.4 0 0 1 .4.1.3.3 0 0 0 .1.2.5.5 0 0 1 .2.3.2.2 0 0 1 0 .1l-.2-.1a.1.1 0 0 0-.2 0 .2.2 0 0 1-.2 0 .4.4 0 0 0-.5 0 3.2 3.2 0 0 1-.3.2.8.8 0 0 1 .6.4l.2.4a.3.3 0 0 1 0 .3h-.1l-.2-.1a.3.3 0 0 1-.3-.2 1.1 1.1 0 0 0-.6-.5l-.2-.1a.8.8 0 0 1-.1.3.6.6 0 0 1-.1 0c-.2.2-.2.2 0 .4l.1.2a.5.5 0 0 1-.4-.2 1.8 1.8 0 0 1-.3-.5.4.4 0 0 1 .1-.4.8.8 0 0 0 .2-.3l-.7-.1a1.6 1.6 0 0 1 0 .3V16a7.7 7.7 0 0 1-.3 1.8 6 6 0 0 1-.5 1.2 9.5 9.5 0 0 1-.6 1.1 6.8 6.8 0 0 1-.6.8 5.9 5.9 0 0 1-.8.8 8 8 0 0 1-1 .7 6.2 6.2 0 0 1-1.6.7 9.8 9.8 0 0 1-1.1.2 6 6 0 0 1-.6.1.4.4 0 0 0-.3.3 1.2 1.2 0 0 1-.5.8l-.4.2v-.2a.3.3 0 0 0 0-.2h-.3c-.1 0-.2 0-.2.2a.8.8 0 0 1-.4.6H15a1.4 1.4 0 0 0 .1-.2l-.1-.3h-.1l-.5.3h-.1l.4.2a1 1 0 0 1 .4.5.3.3 0 0 1 0 .3.1.1 0 0 0 0 .2 1 1 0 0 1 0 .7l-.2.2-.1-.5a.7.7 0 0 1-.8-.5.9.9 0 0 1-.6.3 1 1 0 0 0-.6.7 2 2 0 0 1-.1.5.5.5 0 0 1-.6.2v.4a.4.4 0 0 1-.3-.5.4.4 0 0 0 0-.2.6.6 0 0 1 .2-.8 2 2 0 0 0 .5-.5l-.7-.2a.7.7 0 0 0-.5.1l-.2.2c-.2.2-.3.2-.5.1a1 1 0 0 0-.2.6.8.8 0 0 1-.2-.3.8.8 0 0 1 0-.3v-.1a.3.3 0 0 1 0-.2.8.8 0 0 1 .5-.5 1.5 1.5 0 0 1 .7-.2h.7a.8.8 0 0 0-.5-.4l-.5-.3a.2.2 0 0 1-.3-.1v-.1a.8.8 0 0 0-.6.1l.4-.5a1.3 1.3 0 0 1 .4 0c.2-.2.4-.1.6 0 .3 0 .5.3.6.6a.5.5 0 0 0 .4.3 1.4 1.4 0 0 0 0-.6.4.4 0 0 0-.4-.3c-.2-.1-.3-.3-.1-.5a.6.6 0 0 0-.6-.2l.5-.2a1 1 0 0 0 .6.1.4.4 0 0 1 .3.3l.1.3.3.6.5-1.3h-.2l-.7-.3a7.8 7.8 0 0 1-1.5-.9.8.8 0 0 0-.3 0l-.1.1.2.2a.8.8 0 0 1-.8-.4 2.6 2.6 0 0 1-.3-1l-.6-.7a.5.5 0 0 0 0 .3v.4h-.1a1.5 1.5 0 0 1-.3-.4l-.2-1.1a3.6 3.6 0 0 0-.1-.5 5.3 5.3 0 0 0-.2-.6v.5h-.1a1.4 1.4 0 0 1-.2-.7 4.6 4.6 0 0 1 .2-1.5 4.4 4.4 0 0 1 .2-.5.7.7 0 0 1-.1.2h-.1a1.2 1.2 0 0 1 .2-.7l.5-1.1a3.6 3.6 0 0 1 .3-.4l-.2.2h-.1a3.5 3.5 0 0 1 .2-.3 3.7 3.7 0 0 1 .8-.7.3.3 0 0 1 .2 0l1 .2h.3a1.4 1.4 0 0 0-.2.4.4.4 0 0 0 0 .4.1.1 0 0 1 0 .2 2.7 2.7 0 0 0-.6.6v.1l.5.6a.8.8 0 0 0 0 .9.3.3 0 0 0 .5.2.8.8 0 0 0 .1.6c.1 0 .2 0 .3.2a1 1 0 0 0 .9.8c.2 0 .5 0 .8-.2h.1c0 .3.2.7.4 1l.7 1c.3.3.6.4 1 .5.4.1.9 0 1.2-.3a3 3 0 0 0 .5-.7l.5-.7a2.3 2.3 0 0 1 .7-.6.4.4 0 0 1 .3-.1v.1a.5.5 0 0 0 0 .6c0 .1 0 .1 0 0l.4-.2c.2 0 .2-.1.2-.3a3 3 0 0 1 .5-1.4 1 1 0 0 1 .2-.2v.7l.1-.1a.2.2 0 0 1 .2-.1.2.2 0 0 0 .1-.1.6.6 0 0 0 .1-.6 1.4 1.4 0 0 1 0-.4 1.1 1.1 0 0 1 .2-.6.5.5 0 0 1 0-.1h.1v.3a.2.2 0 0 0 0 .1h.1l.2-.1a.7.7 0 0 0 0-.4.7.7 0 0 1 0-.2v-.9l.2-.2v.4h.2zM10 10l.5-.6a.4.4 0 0 1 .2 0V9h-.2V9a.6.6 0 0 1 .2-.4 1.2 1.2 0 0 1 .8 0 .2.2 0 0 0 .2 0l.6-.3v-.1h-.3a.2.2 0 0 1-.1 0c0-.2.2-.3.3-.4h1.4l.3-.1v-.1s-.1-.2-.2-.1h-.1a.1.1 0 0 1 0-.2.8.8 0 0 1 .6-.1 1 1 0 0 1 .5.2h.1a.3.3 0 0 0 .3 0 .4.4 0 0 1 .4 0 .3.3 0 0 0-.2-.2H15a.9.9 0 0 1 .8-.1c.3 0 .4.2.6.4a.6.6 0 0 0 .1 0 1 1 0 0 1 .4.1h.1a.3.3 0 0 0-.1-.3h-.2v-.1a.9.9 0 0 1 .3 0c.3 0 .6.2.8.4l.2.4a.5.5 0 0 1 .4.2h.1a.5.5 0 0 0 .1 0 .4.4 0 0 0-.2-.4h-.1.3l.4.2c.3.1.6.4.7.8l.4.2h.1v-.2a.5.5 0 0 0-.2-.3H20a.6.6 0 0 1 .6.1l.4.6a.2.2 0 0 0 .1.2c.1 0 .2 0 .2.2.1-.3 0-.4-.1-.6a.5.5 0 0 1 .4.2l.3.4.3.4.1.4a2.8 2.8 0 0 1-.1 1 6 6 0 0 0 0 .7.9.9 0 0 0-.3.6 2.9 2.9 0 0 0 0 1 1 1 0 0 0-.5.8v.6a.8.8 0 0 0-.6.5c0 .2 0 .3-.2.5l-.1.1V16a4.2 4.2 0 0 0 0-1 3.4 3.4 0 0 0-.2-1.3v-.2a1 1 0 0 0 .3-.6 6.7 6.7 0 0 0 0-1 1 1 0 0 0-.3-.6.6.6 0 0 0-.6-.1.8.8 0 0 0-.5.7v.3a3.4 3.4 0 0 0-1.2-.8 4.7 4.7 0 0 0-.9-.2h-.6a3.7 3.7 0 0 0-1.1.2l-.6.3a.1.1 0 0 1-.2 0 5.5 5.5 0 0 0-1.4-.7 3.6 3.6 0 0 0-.7 0l-1.5-.4a3.5 3.5 0 0 1-1-.4.4.4 0 0 0-.1-.2zm9.4 4.7c0 .2-.3.2-.6.1v.4a.5.5 0 0 1 0 .1h-.2a2.8 2.8 0 0 1-.3-.3.4.4 0 0 0-.2.3c0 .2-.2.2-.3 0a1 1 0 0 0-.2-.1 2.5 2.5 0 0 1-.2.2.2.2 0 0 1-.1.1.5.5 0 0 1-.1-.1.7.7 0 0 1 0-.2c-.1.3-.3.5-.6.6a.7.7 0 0 1 0-.4c.1 0 0 0 0 0a.8.8 0 0 0-.2.5c0 .5.1.9.3 1.3l.5 1c.1.3.2.6.1 1a.9.9 0 0 1-1.4.8 2.2 2.2 0 0 1-.6-.6l-.4-.5a3.2 3.2 0 0 1-.2-.5v-.1a.3.3 0 0 1 .3.2 13 13 0 0 0 .9 1.1.6.6 0 0 0 .8-.3 1 1 0 0 0-.1-.8l-.6-1.1a4.1 4.1 0 0 1-.4-1.3 1.5 1.5 0 0 1 0-.4h-1.1a.5.5 0 0 0-.3-.5.2.2 0 0 0-.2.2.6.6 0 0 0 .3.5l.4.3h.2a.3.3 0 0 0 0-.2c.1 0 .2.1.2.3l.2.7a.4.4 0 0 1 0 .3 1.1 1.1 0 0 1-.5.4.7.7 0 0 1-.5 0 2.5 2.5 0 0 1 .3-.3.3.3 0 0 0 0-.3 1.1 1.1 0 0 0-.3 0 .3.3 0 0 0-.2 0 4 4 0 0 1-.5.4.8.8 0 0 1-1-.2 1 1 0 0 1-.1-.3V17a.5.5 0 0 1-.2 0l.1-.5a.1.1 0 0 0 0-.1.8.8 0 0 0-.3-.3h-.4a.6.6 0 0 1 .4-.5h.2a2.1 2.1 0 0 1-.8-.5v-.2l.4-.3a1.2 1.2 0 0 1 .8 0c.3 0 .5.2.7.4a1.2 1.2 0 0 0-.7-.7 3 3 0 0 0-1-.2.3.3 0 0 1 .3-.2l.6-.1a1.2 1.2 0 0 0 .5-.3 2 2 0 0 0-.3-.2l-.9-.4a2.8 2.8 0 0 0-.8-.2 5.6 5.6 0 0 1-1-.3 4.6 4.6 0 0 1-1.3-.5c-.4-.3-.8-.6-1-1a1.4 1.4 0 0 1-.2-.3v-.2h.1l.2.1.8.7a3.1 3.1 0 0 0 1 .5l1 .2h.7l.6.1.6.1 1 .4a.1.1 0 0 0 .1 0l.4-.1v-.1a7.8 7.8 0 0 0-.7-.4 5 5 0 0 0-1.5-.3h-.6a8.4 8.4 0 0 1-1-.3 3.4 3.4 0 0 1-1-.6 1.6 1.6 0 0 1-.6-.7v-.3a.2.2 0 0 1 .1 0l.3.3.5.5c.4.3.8.5 1.3.6l.8.2 1.4.2a3 3 0 0 1 1.5.7c.1.2.3 0 .4 0a.4.4 0 0 1 .5.2v1a.3.3 0 0 0 .1.3h.1a.8.8 0 0 1 .9.2.2.2 0 0 0 .2 0 5.3 5.3 0 0 0 .6-.4c.2 0 0-.1.1-.2a.7.7 0 0 1 .8-.4h.6a1 1 0 0 0 .6 0 .5.5 0 0 0 .4-.4v-.6l.1-.1.1.1v1a.6.6 0 0 1-.6.5h-.8a.5.5 0 0 0-.6.4.3.3 0 0 0 0 .1c.1.2.2.3.4.3 0 0 .2 0 .2.2a.6.6 0 0 0 .5.4h.2zm-5.6-.7.4.4a.4.4 0 0 0 .5 0 3.6 3.6 0 0 0 .4-.3.3.3 0 0 0-.2-.3.5.5 0 0 0-.3 0l-.1.1a1 1 0 0 1-.5 0l-.2.1zm3.3.4a.3.3 0 0 0 .1 0 .8.8 0 0 1 .5.3h.3l.2-.1a1.4 1.4 0 0 0-.2-.2 1.4 1.4 0 0 0-.9 0zm-12.5 3a1 1 0 0 0 1 .3.4.4 0 0 0 .3-.2 1.6 1.6 0 0 1-1.1-.2 1.3 1.3 0 0 1-.7-.8 1.3 1.3 0 0 1 .6-1.5 1.3 1.3 0 0 0 .8 1.7h.2a1.4 1.4 0 0 0 1.5-.8 3.5 3.5 0 0 0-.3.3c-.4.3-1 .3-1.5 0a.9.9 0 0 1 0-1.5.6.6 0 0 0 .3.4 1.6 1.6 0 0 0 .4.2 1.2 1.2 0 0 0 1-.3 1.5 1.5 0 0 0 .4-.5l.5-1.4a8.8 8.8 0 0 1 .5-.8h.1l.5.3.4.1-.2.1a5.3 5.3 0 0 0-.8 1.1L8 15c0 .3-.2.7-.4 1l-.2.8-.3.6a1.5 1.5 0 0 1-.7.7 1.5 1.5 0 0 1-.5.2 2.3 2.3 0 0 1-.6 0 .8.8 0 0 1-.6-.6.4.4 0 0 0 0-.2zm14.1-.8v.4c0 .1 0 .1-.2 0l-.3-.1H18a.6.6 0 0 1 0 .5.2.2 0 0 1 0 .1h-.2v-.2a.2.2 0 0 0-.4-.1.9.9 0 0 0-.2.1H17a3.1 3.1 0 0 1-.3-1h.1a.5.5 0 0 0 .6 0 .4.4 0 0 0 0-.3l-.1-.1c.1 0 .1-.2.5.3l.2-.2c.1 0 0-.1 0-.2v-.2l.2.1a.2.2 0 0 1 .1 0 3 3 0 0 0 .5.5.5.5 0 0 1 .2.4v.1h-.4zM6.8 15a1 1 0 0 0-.6-.1 1.1 1.1 0 0 1-.3 0 .4.4 0 0 1-.3-.5l.3.1a.3.3 0 0 1 .3-.3.5.5 0 0 1 .4 0c.2.3.3.6.2.8z" fill="#FFF"/></g></svg>