<?xml version="1.0" encoding="UTF-8"?>
<svg version="1.1" viewBox="0 0 400 400" xmlns="http://www.w3.org/2000/svg">
<g fill-rule="evenodd">
<path d="m316.7 250.5c-0.324 0.496-1.18 2.071-1.902 3.5-0.721 1.43-1.881 3.32-2.576 4.2s-1.781 2.41-2.413 3.4c-3.462 5.426-17.904 17.771-25.054 21.416-1.014 0.517-2.364 1.375-3 1.907s-1.607 1.106-2.157 1.275-2.385 1-4.077 1.848c-1.692 0.847-3.942 1.882-5 2.3-1.058 0.419-4.263 1.706-7.123 2.861s-6.1 2.336-7.2 2.625c-1.1 0.288-2.9 0.79-4 1.115-9.019 2.661-24.111 5.717-29.8 6.033-1.21 0.067-5.17 0.392-8.8 0.722-15.124 1.373-37.266-0.042-52.2-3.338-4.269-0.942-10.124-2.402-12.8-3.191-1.54-0.454-3.7-1.061-4.8-1.348-1.86-0.486-7.365-2.589-14-5.348-9.937-4.133-20.653-10.669-28.542-17.408-6.45-5.51-13.406-13.972-16.987-20.663-3.638-6.8-1.484 6.977 2.345 14.994 7.804 16.34 27.216 32.285 48.984 40.237 2.31 0.844 5.46 2.011 7 2.594 23.018 8.715 59.635 11.304 89.6 6.335 46.808-7.762 83.081-34.723 85.243-63.359 0.288-3.822 0.2-4.143-0.741-2.707" fill="#ffdc8f"/>
<path d="m144.8 68.279c-11.244 1.912-21.379 9.645-25.983 19.826-1.499 3.314-2.908 8.132-2.696 9.22 0.13 0.67 0.187 0.594 0.241-0.325 0.509-8.589 9.42-20.404 19.109-25.336 5.468-2.784 17.279-4.079 22.929-2.515 14.029 3.883 23.827 14.309 26.192 27.87 0.493 2.828 0.608 7.549 0.608 25.007 0 22.482 0.08 23.594 1.69 23.549l0.91-0.026-0.888-0.357c-1.307-0.526-1.294-0.29-1.438-25.192-0.147-25.473-0.1-24.969-2.954-31.219-6.622-14.498-22.447-23.099-37.72-20.502m96.794 0.311c-9.693 2.024-18.94 9.162-23.548 18.177-3.912 7.654-3.77 6.459-4.024 33.713-0.145 15.629-0.365 24.024-0.636 24.294-0.261 0.261-4.834 0.455-12.4 0.526l-11.986 0.112 12.051 0.094c10.79 0.084 12.109 0.025 12.6-0.567 0.446-0.537 0.588-5.086 0.759-24.3l0.211-23.639 1.111-3.58c9.542-30.75 51.119-33.938 64.642-4.957 2.966 6.354 3.677 12.224 2.636 21.737-0.097 0.88 0.076 0.34 0.383-1.2 4.735-23.756-17.697-45.443-41.799-40.41m-96.827 10.819c-7.783 1.89-14.383 7.864-17.224 15.592-1.148 3.124-1.281 11.205-0.26 15.799 0.769 3.457 2.41 12.113 3.318 17.499 0.343 2.034 0.707 3.924 0.809 4.2 0.191 0.516 0.661 3.063 2.419 13.101 0.558 3.19 1.263 6.97 1.566 8.4 2.761 13.031 3.019 12.164-4.595 15.442-26.825 11.546-45.405 30.214-49.619 49.855-1.795 8.37-2.296 31.582-0.822 38.148 6.861 30.562 40.894 54.211 89.641 62.291 17.372 2.879 44.035 2.916 59.6 0.082 1.65-0.3 4.71-0.852 6.8-1.225 42.495-7.6 75.561-31.292 82.894-59.393 1.88-7.205 1.606-30.939-0.462-40.078-4.573-20.199-23.138-38.507-50.88-50.173-2.336-0.983-4.641-2.205-5.121-2.716l-0.872-0.929 1.241-6.552c1.196-6.317 2.844-15.197 3.591-19.352 0.68-3.78 2.812-15.206 3.807-20.4 2.98-15.554 3.08-16.791 1.77-21.933-5.951-23.36-37.484-24.663-46.335-1.915l-1.031 2.648-0.201 29.315c-0.175 25.456-0.28 29.368-0.801 29.724-0.601 0.41-3.389 0.308-12-0.44-2.31-0.2-7.17-0.363-10.8-0.362-6.002 2e-3 -8.78 0.132-21.406 0.998-3.241 0.222-4.096 0.165-4.482-0.3-0.357-0.43-0.512-7.837-0.615-29.355-0.12-25.281-0.217-29.041-0.793-30.928-3.851-12.599-16.637-20.078-29.137-17.043m-29.246 20.891c-0.105 1.045-0.068 3.16 0.081 4.7 0.251 2.585 0.277 2.44 0.335-1.9 0.066-4.927-0.095-6.007-0.416-2.8m0.733 9.3c0.529 3.758 0.843 5.115 0.879 3.8 0.018-0.66-0.229-2.19-0.549-3.4-0.547-2.063-0.567-2.088-0.33-0.4m164.96 9.609c-0.726 3.967-1.242 7.291-1.147 7.386 0.095 0.096 0.767-3.073 1.491-7.042 0.725-3.968 1.242-7.292 1.148-7.386s-0.765 3.075-1.492 7.042m-163.95-3.809c-0.014 0.44 0.667 4.22 1.513 8.4 0.847 4.18 1.548 7.24 1.559 6.8s-0.669-4.22-1.513-8.4c-0.843-4.18-1.545-7.24-1.559-6.8m161.94 14.4c-0.274 1.45-0.416 2.717-0.317 2.816s0.399-1.011 0.667-2.466 0.411-2.722 0.317-2.816c-0.093-0.093-0.393 1.016-0.667 2.466m-158.53 3.6c0.127 1.1 0.297 2.075 0.379 2.167 0.281 0.315 0.069-2.168-0.271-3.167-0.229-0.674-0.264-0.349-0.108 1m157.22 3.404c-0.134 0.768-0.541 3.075-0.904 5.127-0.362 2.052-0.582 3.808-0.487 3.902 0.094 0.094 0.389-1.135 0.655-2.731s0.672-3.752 0.902-4.791c0.229-1.038 0.341-2.117 0.248-2.396s-0.279 0.121-0.414 0.889m-156.65 0.229c0.022 0.642 0.193 1.617 0.38 2.167 0.229 0.674 0.264 0.349 0.108-1-0.259-2.25-0.549-2.941-0.488-1.167m154.41 12.017c-0.268 1.455-0.411 2.722-0.317 2.816 0.093 0.093 0.393-1.016 0.667-2.466s0.416-2.717 0.317-2.816-0.399 1.011-0.667 2.466m-151.59 2.75c-0.013 0.44 0.221 1.88 0.518 3.2 0.298 1.32 0.553 2.04 0.566 1.6s-0.221-1.88-0.518-3.2c-0.298-1.32-0.553-2.04-0.566-1.6m150.18 5c-0.332 2.499 1.999 5.897 3.212 4.683 0.097-0.096-0.377-0.404-1.052-0.684-1.666-0.69-2.076-1.622-1.76-3.999 0.146-1.1 0.175-2 0.065-2s-0.319 0.9-0.465 2m-149.34 2.28c-0.319 0.897-1.315 1.583-5.005 3.448-14.674 7.416-28.1 17.665-35.461 27.072-1.548 1.977-1.488 1.937 0.589-0.4 9.536-10.731 20.177-18.767 34.583-26.117 4.633-2.364 6.71-4.106 5.883-4.934-0.105-0.104-0.37 0.314-0.589 0.931m156.31 4.31c0 0.11 1.26 0.834 2.8 1.61s2.8 1.32 2.8 1.21-1.26-0.834-2.8-1.61-2.8-1.32-2.8-1.21m6 3.189c0 0.11 0.54 0.48 1.2 0.821s1.2 0.531 1.2 0.421-0.54-0.48-1.2-0.821-1.2-0.531-1.2-0.421m3 1.72c0.22 0.218 2.29 1.674 4.6 3.235 4.506 3.046 8.14 5.767 10.417 7.801 0.779 0.696 0.581 0.455-0.44-0.535-2.458-2.384-4.303-3.831-9.168-7.194-3.926-2.713-6.232-4.123-5.409-3.307m20.96 16.648c2.069 2.229 4.475 4.998 5.348 6.153 0.874 1.155 1.668 2.1 1.765 2.1 0.524 0-2.952-4.164-6.648-7.964l-4.225-4.343 3.76 4.054m-229.56 8.253c-0.47 0.66-0.764 1.2-0.654 1.2s0.584-0.54 1.054-1.2 0.764-1.2 0.654-1.2-0.584 0.54-1.054 1.2m-1.677 2.3c-0.705 0.821-1.233 1.7-1.022 1.7 0.082 0 0.548-0.54 1.036-1.2 0.964-1.304 0.955-1.628-0.014-0.5m-2.123 3.3c-0.341 0.66-0.531 1.2-0.421 1.2s0.48-0.54 0.821-1.2 0.531-1.2 0.421-1.2-0.48 0.54-0.821 1.2m245.2 2c0.341 0.66 0.711 1.2 0.821 1.2s-0.08-0.54-0.421-1.2-0.711-1.2-0.821-1.2 0.08 0.54 0.421 1.2m-247.62 2.441c-0.787 1.563-1.365 2.906-1.285 2.986 0.079 0.08 0.809-1.199 1.622-2.841s1.391-2.986 1.286-2.986c-0.106 0-0.836 1.278-1.623 2.841m82.526 2.111c8.922 4.521 11.618 22.198 4.958 32.502-8.204 12.692-22.787 3.888-22.616-13.654 0.14-14.384 8.615-23.431 17.658-18.848m91.993-4e-3c8.655 4.386 11.492 20.833 5.469 31.713-5.234 9.455-15.886 8.898-20.542-1.075-7.689-16.469 2.433-37.043 15.073-30.638m75.33-0.348c0 0.22 0.258 0.85 0.572 1.4s0.572 0.82 0.572 0.6-0.258-0.85-0.572-1.4-0.572-0.82-0.572-0.6m-252.16 3.467c-0.362 0.921-0.593 1.74-0.513 1.821 0.08 0.08 0.446-0.605 0.813-1.521 0.366-0.917 0.597-1.736 0.512-1.821s-0.45 0.599-0.812 1.521m-3.686 29.933c0 8.03 0.053 11.315 0.118 7.3 0.066-4.015 0.066-10.585 0-14.6-0.065-4.015-0.118-0.73-0.118 7.3m261.18-8.4c0 3.41 0.061 4.805 0.136 3.1s0.075-4.495 0-6.2-0.136-0.31-0.136 3.1m-0.052 12c0 0.99 0.078 1.395 0.173 0.9 0.096-0.495 0.096-1.305 0-1.8-0.095-0.495-0.173-0.09-0.173 0.9m0 5.2c0 0.99 0.078 1.395 0.173 0.9 0.096-0.495 0.096-1.305 0-1.8-0.095-0.495-0.173-0.09-0.173 0.9m-13.066 6.007c-2.162 28.636-38.435 55.597-85.243 63.359-29.965 4.969-66.582 2.38-89.6-6.335-1.54-0.583-4.69-1.75-7-2.594-28.156-10.285-50.35-32.515-52.831-52.915-0.557-4.581-0.093-5.297 1.502-2.316 3.581 6.691 10.537 15.153 16.987 20.663 7.889 6.739 18.605 13.275 28.542 17.408 6.635 2.759 12.14 4.862 14 5.348 1.1 0.287 3.26 0.894 4.8 1.348 2.676 0.789 8.531 2.249 12.8 3.191 14.934 3.296 37.076 4.711 52.2 3.338 3.63-0.33 7.59-0.655 8.8-0.722 5.689-0.316 20.781-3.372 29.8-6.033 1.1-0.325 2.9-0.827 4-1.115 1.1-0.289 4.34-1.47 7.2-2.625s6.065-2.442 7.123-2.861c1.058-0.418 3.308-1.453 5-2.3 1.692-0.848 3.527-1.679 4.077-1.848s1.521-0.743 2.157-1.275 1.986-1.39 3-1.907c7.15-3.645 21.592-15.99 25.054-21.416 0.632-0.99 1.718-2.52 2.413-3.4s1.855-2.77 2.576-4.2c2.742-5.433 2.999-5.51 2.643-0.793m-8.468 41.693-1.175 1.3 1.3-1.175c0.715-0.646 1.3-1.231 1.3-1.3 0-0.309-0.33-0.037-1.425 1.175m-213.38 4.1c0.746 0.77 1.447 1.4 1.557 1.4s-0.411-0.63-1.157-1.4-1.447-1.4-1.557-1.4 0.411 0.63 1.157 1.4m168.4 22.4c-0.55 0.314-0.82 0.572-0.6 0.572s0.85-0.258 1.4-0.572 0.82-0.572 0.6-0.572-0.85 0.258-1.4 0.572m-31.9 8.076c0.385 0.1 1.015 0.1 1.4 0 0.385-0.101 0.07-0.183-0.7-0.183s-1.085 0.082-0.7 0.183m-56.8 1.2c0.385 0.1 1.015 0.1 1.4 0 0.385-0.101 0.07-0.183-0.7-0.183s-1.085 0.082-0.7 0.183m48.2 6e-3c0.495 0.096 1.305 0.096 1.8 0 0.495-0.095 0.09-0.173-0.9-0.173s-1.395 0.078-0.9 0.173m-35.795 1.205c0.609 0.092 1.509 0.09 2-5e-3 0.492-0.095-5e-3 -0.171-1.105-0.168s-1.503 0.081-0.895 0.173m22.795-0.011c0.385 0.1 1.015 0.1 1.4 0 0.385-0.101 0.07-0.183-0.7-0.183s-1.085 0.082-0.7 0.183" fill="#d1844a"/>
<path d="m144.66 68.79c-19.271 3.521-31.775 21.812-28.107 41.116 2.471 13.001 4.392 23.343 5.071 27.294 0.435 2.53 1.426 7.899 2.204 11.93 2.237 11.604 2.614 10.463-4.696 14.202-27.924 14.284-44.357 33.246-48.74 56.245-1.032 5.418-1.176 31.419-0.206 37.337 4.375 26.689 26.692 49.243 62.61 63.276 11.421 4.462 29.385 8.834 42 10.222 2.31 0.254 5.64 0.624 7.4 0.821 22.495 2.522 54.035-0.83 76.8-8.163 3.883-1.251 6.304-2.159 14.4-5.401 26.071-10.441 47.354-30.686 54.157-51.514 4.024-12.321 4.353-39.99 0.63-53.044-5.725-20.075-24.865-39.484-50.752-51.465-3.691-1.709-3.742-1.896-2.443-8.89 0.589-3.166 1.412-7.646 1.831-9.956 0.418-2.31 1.201-6.54 1.738-9.4 5.759-30.623 5.747-30.516 4.203-37.707-7.507-34.951-56.377-36.608-67.032-2.273l-1.111 3.58-0.211 23.639c-0.171 19.214-0.313 23.763-0.759 24.3-0.491 0.591-1.988 0.661-14.11 0.661h-13.561l-0.39-1.026c-0.236-0.621-0.39-9.532-0.39-22.548 0-17.458-0.115-22.179-0.608-25.007-2.35-13.474-12.256-24.071-25.992-27.803-2.143-0.582-11.514-0.868-13.936-0.426m11.552 10.625c8.494 2.193 15.094 8.55 17.688 17.037 0.576 1.887 0.673 5.647 0.793 30.928 0.103 21.518 0.258 28.925 0.615 29.355 0.386 0.465 1.241 0.522 4.482 0.3 12.626-0.866 15.404-0.996 21.406-0.998 3.63-1e-3 8.49 0.162 10.8 0.362 8.611 0.748 11.399 0.85 12 0.44 0.521-0.356 0.626-4.268 0.801-29.724l0.201-29.315 1.031-2.648c8.851-22.748 40.384-21.445 46.335 1.915 1.31 5.142 1.21 6.379-1.77 21.933-0.995 5.194-3.127 16.62-3.807 20.4-0.747 4.155-2.395 13.035-3.591 19.352l-1.241 6.552 0.872 0.929c0.48 0.511 2.785 1.733 5.121 2.716 27.742 11.666 46.307 29.974 50.88 50.173 2.068 9.139 2.342 32.873 0.462 40.078-7.333 28.101-40.399 51.793-82.894 59.393-2.09 0.373-5.15 0.925-6.8 1.225-15.565 2.834-42.228 2.797-59.6-0.082-48.747-8.08-82.78-31.729-89.641-62.291-1.474-6.566-0.973-29.778 0.822-38.148 4.214-19.641 22.794-38.309 49.619-49.855 7.614-3.278 7.356-2.411 4.595-15.442-0.303-1.43-1.008-5.21-1.566-8.4-1.758-10.038-2.228-12.585-2.419-13.101-0.102-0.276-0.466-2.166-0.809-4.2-0.908-5.386-2.549-14.042-3.318-17.499-1.021-4.594-0.888-12.675 0.26-15.799 4.309-11.72 16.975-18.605 28.673-15.586m-5.463 125.11c-12.694 4.737-14.554 29.334-2.837 37.52 12.726 8.89 24.692-15.276 15.432-31.165-3.057-5.245-8.376-7.929-12.595-6.355m92.177 0.026c-9.961 3.238-13.983 18.839-8.105 31.431 4.656 9.973 15.308 10.53 20.542 1.075 8.049-14.54-0.331-36.442-12.437-32.506" fill="#632f07"/>
<path d="m183.76 0.7c-0.373 0.592-1.269 0.731-5.798 0.9-3.188 0.119-5.711 0.402-6.231 0.7-0.48 0.275-1.959 0.5-3.285 0.5-1.468 0-3.205 0.313-4.441 0.8-1.116 0.44-2.878 0.806-3.915 0.814s-2.335 0.272-2.885 0.586-1.591 0.578-2.313 0.586-1.959 0.284-2.749 0.614c-0.789 0.33-1.963 0.6-2.607 0.6s-1.682 0.264-2.307 0.588c-0.625 0.323-2.101 0.754-3.28 0.958-2.134 0.369-3.756 0.863-6.258 1.906-0.722 0.302-1.622 0.549-2 0.55-0.377 2e-3 -1.169 0.255-1.759 0.563s-1.67 0.689-2.4 0.847-2.357 0.805-3.616 1.438c-1.258 0.632-2.564 1.15-2.902 1.15-0.785 0-26.855 13.027-27.206 13.595-0.144 0.234-1.496 1.046-3.003 1.805s-2.856 1.567-2.997 1.796c-0.142 0.228-0.961 0.774-1.82 1.213-0.86 0.438-2.441 1.561-3.514 2.494s-2.548 2.057-3.277 2.497c-3.463 2.089-4.201 2.632-6.127 4.506-1.136 1.105-2.695 2.324-3.465 2.71-0.77 0.385-3.404 2.654-5.854 5.042-2.449 2.388-4.656 4.342-4.904 4.342-0.691 0-6.731 5.919-7.707 7.553-0.475 0.796-2.701 3.337-4.946 5.647s-4.396 4.83-4.778 5.6c-0.383 0.77-1.6 2.329-2.705 3.465-1.874 1.926-2.417 2.664-4.506 6.127-0.44 0.729-1.564 2.204-2.497 3.277s-2.056 2.654-2.494 3.514c-0.439 0.859-0.984 1.678-1.212 1.819s-0.97 1.368-1.649 2.727-1.561 2.831-1.96 3.271c-0.989 1.091-13.135 25.252-13.574 27-0.365 1.456-1.669 5.021-3.219 8.8-1.583 3.86-3.205 8.768-3.635 11-0.403 2.092-1.076 4.75-1.788 7.054-0.314 1.019-0.572 2.239-0.572 2.71s-0.36 1.88-0.8 3.132-0.806 3.093-0.814 4.09c-8e-3 0.998-0.272 2.264-0.586 2.814-0.323 0.565-0.578 2.093-0.586 3.513-8e-3 1.382-0.275 3.138-0.595 3.903-0.329 0.788-0.702 3.568-0.86 6.419-0.187 3.363-0.458 5.207-0.819 5.568-0.808 0.808-0.792 31.425 0.017 32.711 0.357 0.567 0.636 2.616 0.774 5.686 0.127 2.81 0.469 5.463 0.825 6.4 0.335 0.88 0.617 2.613 0.626 3.851 0.01 1.238 0.288 2.898 0.618 3.687 0.33 0.79 0.6 2.158 0.6 3.041s0.247 2.283 0.549 3.113c0.302 0.829 0.743 2.408 0.979 3.508 0.866 4.032 1.62 6.871 2.634 9.912 0.571 1.712 1.038 3.347 1.038 3.634 0 0.893 2.269 7.63 3.156 9.367 0.464 0.911 0.844 1.884 0.844 2.163 0 2.056 12.423 28.21 14.666 30.875 0.542 0.645 1.613 2.359 2.379 3.811 1.624 3.077 2.553 4.508 4.778 7.358 0.892 1.144 2.501 3.43 3.575 5.08s2.711 3.81 3.639 4.8 2.167 2.52 2.754 3.4c1.142 1.714 8.296 9.805 11.637 13.162 1.115 1.121 2.423 2.61 2.907 3.31 0.484 0.699 1.551 1.686 2.372 2.193s3.383 2.699 5.693 4.871 4.888 4.39 5.729 4.93c0.84 0.539 2.594 1.96 3.896 3.157s2.509 2.177 2.682 2.177c0.299 0 1.987 1.177 6.893 4.807 3.666 2.713 4.886 3.504 7.638 4.952 1.452 0.764 3.162 1.828 3.8 2.365 2.002 1.681 24.08 12.474 28.715 14.037 2.394 0.807 4.734 1.672 5.2 1.922 1.426 0.765 7.192 2.717 8.026 2.717 0.432 0 2.414 0.537 4.403 1.193 4.414 1.455 7.754 2.345 10.467 2.789 1.127 0.184 2.42 0.534 2.874 0.777 0.453 0.242 1.434 0.441 2.178 0.441 0.745 0 2.241 0.259 3.326 0.575 1.085 0.317 3.323 0.7 4.973 0.852s3.36 0.475 3.8 0.718 3.485 0.535 6.767 0.648c4.265 0.148 6.014 0.35 6.133 0.707 0.129 0.388 3.469 0.5 14.9 0.5s14.771-0.112 14.9-0.5c0.118-0.357 1.874-0.562 6.133-0.716 3.282-0.118 6.417-0.409 6.967-0.647 0.55-0.237 2.26-0.558 3.8-0.713s3.688-0.539 4.773-0.853 2.581-0.571 3.326-0.571c0.744 0 1.675-0.172 2.068-0.382 0.393-0.211 1.956-0.657 3.474-0.993 4.909-1.087 11.409-2.715 14.359-3.596 2.75-0.821 7.011-2.385 8.113-2.979 0.501-0.27 2.835-1.121 5.184-1.891 4.196-1.374 27.464-12.663 29.043-14.09 0.407-0.368 1.874-1.299 3.26-2.069 3.315-1.842 7.854-4.893 8.571-5.762 0.314-0.38 1.124-0.975 1.8-1.323s2.129-1.38 3.229-2.294 2.379-1.923 2.842-2.241c8.39-5.776 26.989-23.708 32.98-31.796 1.134-1.531 2.611-3.361 3.282-4.067 0.67-0.705 1.596-1.899 2.058-2.654 1.526-2.497 3.193-4.843 4.507-6.345 0.713-0.815 1.69-2.255 2.172-3.2 0.89-1.747 3.672-6.071 5.122-7.958 1.351-1.759 12.606-24.765 13.776-28.16 0.607-1.76 1.471-4.1 1.921-5.2 1.647-4.025 3.14-8.415 3.14-9.233 0-0.461 0.538-2.443 1.195-4.403 0.658-1.96 1.201-4.014 1.209-4.564 7e-3 -0.55 0.37-1.785 0.805-2.744s0.791-2.269 0.791-2.913c0-0.643 0.27-1.815 0.6-2.605 0.33-0.789 0.6-2.122 0.6-2.961s0.201-2.032 0.447-2.651 0.596-2.656 0.778-4.526 0.611-4.069 0.953-4.887c0.454-1.086 0.622-2.887 0.622-6.672 0-4.074 0.128-5.312 0.6-5.784 0.512-0.512 0.6-2.806 0.6-15.657s-0.088-15.145-0.6-15.657c-0.462-0.462-0.6-1.632-0.6-5.085 0-3.46-0.183-5.006-0.8-6.762-0.44-1.252-0.8-3.249-0.8-4.437 0-1.189-0.27-2.808-0.6-3.597-0.33-0.79-0.6-2.104-0.6-2.921s-0.339-2.577-0.754-3.913c-0.832-2.679-1.58-5.579-2.072-8.028-0.49-2.435-1.147-4.894-2.192-8.2-1.526-4.826-1.824-5.66-3.005-8.4-1.103-2.56-2.116-5.445-2.74-7.8-0.469-1.77-12.68-25.972-13.41-26.578-0.344-0.285-1.163-1.578-1.821-2.873-1.512-2.976-3.489-5.987-5.611-8.549-1.906-2.3-3.229-4.194-4.35-6.228-0.434-0.786-1.881-2.634-3.217-4.108-1.335-1.474-2.428-2.878-2.428-3.12 0-0.243-2.07-2.557-4.6-5.144s-4.6-4.927-4.6-5.2c0-0.759-6.412-7.177-8-8.008-0.77-0.403-2.93-2.296-4.8-4.206-1.87-1.911-4.39-4.111-5.6-4.889s-3.222-2.378-4.47-3.556c-1.249-1.177-2.458-2.141-2.687-2.141s-1.328-0.81-2.443-1.8-2.187-1.8-2.383-1.8c-0.195 0-0.935-0.487-1.642-1.083-1.618-1.361-4.67-3.299-7.775-4.938-1.32-0.696-2.763-1.599-3.207-2.005-1.01-0.925-25.495-13.18-27.166-13.597-1.889-0.472-3.751-1.168-7.045-2.634-1.66-0.739-3.318-1.343-3.686-1.343s-1.26-0.246-1.982-0.548c-2.502-1.043-4.124-1.537-6.258-1.906-1.179-0.204-2.655-0.635-3.28-0.958-0.625-0.324-1.73-0.594-2.456-0.602s-1.77-0.272-2.32-0.586-1.72-0.584-2.6-0.6-2.05-0.286-2.6-0.6-1.9-0.582-3-0.595c-1.1-0.012-2.785-0.379-3.744-0.814-1.16-0.526-2.607-0.791-4.326-0.791-1.42 0-2.976-0.225-3.456-0.5-0.519-0.297-3.038-0.581-6.207-0.7-4.469-0.168-5.415-0.313-5.844-0.9-0.788-1.078-31.789-1.078-32.468 0m-26.302 67.924c13.078 2.701 23.228 12.29 27.073 25.576 0.76 2.625 0.825 4.281 1.042 26.48 0.17 17.311 0.358 23.807 0.701 24.15 0.603 0.602 26.523 0.535 27.131-0.071 0.253-0.251 0.482-9.194 0.622-24.279 0.254-27.254 0.112-26.059 4.024-33.713 14.852-29.055 58.213-23.035 65.18 9.051 1.409 6.489 1.067 9.8-3.413 32.982-0.531 2.75-1.242 6.53-1.579 8.4-0.338 1.87-1.148 6.19-1.801 9.6-2.668 13.932-3 12.511 3.698 15.86 28.055 14.027 45.515 33.76 49.771 56.253 1.054 5.568 1.033 34.44-0.029 39.661-5.032 24.747-26.226 46.866-57.073 59.563-1.87 0.769-4.57 1.881-6 2.47-1.43 0.59-3.68 1.391-5 1.781s-3.272 1.006-4.339 1.369c-25.397 8.644-63.882 10.72-94.261 5.084-51.612-9.575-88.301-38.216-93.378-72.892-0.878-6.002-0.881-29.327-4e-3 -34.749 3.871-23.93 20.939-43.933 50.065-58.672 6.411-3.244 6.501 1.684-0.659-36.128-1.104-5.83-2.193-11.805-2.42-13.278s-0.502-2.913-0.612-3.2c-0.636-1.659-0.864-8.376-0.391-11.522 3.074-20.454 21.838-33.869 41.652-29.776" fill="#3fd3dc"/>
</g>
</svg>
