<svg width="32" height="32" xmlns="http://www.w3.org/2000/svg"><g fill="none"><circle fill="#01C38D" cx="16" cy="16" r="16"/><path d="m18.5 5.5-1.7 1v8.3l1 .5V9l3.2 1.8.6.4.5-.3v-.5l-4.4-2.5V7l.8-.4L23 9.2v2.3L21 12.7h-.1a1 1 0 0 0-.4-.1 1 1 0 0 0-1 1c0 .4.5.9 1 .9a1 1 0 0 0 1-.9l2.1-1.3 2 1.1v5.2l-2 1.1-8.3-4.7V6.5l-1.7-1L8 8.6v2.8L5.5 13V19L8 20.5v2.9l5.5 3.1 1.7-1v-8.3l-1-.5V23l-3.8-2.2-.5.3v.5l4.4 2.5v.9l-.8.4L9 22.8v-2.3l2.1-1.2h.1l.4.1c.5 0 1-.4 1-1a1 1 0 0 0-1-.9 1 1 0 0 0-1 .9l-2.1 1.3-2-1.1v-5.2l2-1.1 8.3 4.7v8.5l1.7 1 5.5-3.1v-2.8l2.5-1.5V13L24 11.5V8.6l-5.5-3.1zM9 9.2l4.5-2.6.8.4V8l-5.3 3V9.2zm.4 2.5L14.3 9v5.5l-4.9-2.8zm8.3 5.8 4.9 2.8-4.9 2.7v-5.5zm0 7.5V24l5.3-3v1.7l-4.5 2.6-.8-.4z" fill="#FFF"/></g></svg>