<svg data-name="Calque 1" xmlns="http://www.w3.org/2000/svg" viewBox="0 0 30 30"><path d="M17.8 15.7c0-.2 0-.3-.2-.4l-2.2-1.5a.5.5 0 0 0-.5 0l-2.2 1.6a.6.6 0 0 0-.3.5 1 1 0 0 1-.2.6.5.5 0 0 0 0 .5l2.3 4.8.8 1.7.2-.3 2.6-6c.1-.2.1-.3-.1-.4a1.3 1.3 0 0 1-.2-1.1zM14.4 13.1 8.5 9l-.1.1.2.5 2.1 4.5c.2.4.3.8.9.9a.9.9 0 0 0 .5-.1l1.9-1.4z" fill="#cd0124"/><path d="M15 0a15 15 0 1 0 15 15A15 15 0 0 0 15 0zm8.1 8.7c-.2 0-.3.1-.4.3l-2.5 6v.4a1.3 1.3 0 0 1-.8 1.8l-.3.3-2.6 6.1a.5.5 0 0 0 0 .5 1.3 1.3 0 0 1-.2 1.7 1.2 1.2 0 0 1-1.6.1 1.1 1.1 0 0 1-.3-1.6.6.6 0 0 0 0-.6l-2.9-6a.7.7 0 0 0-.5-.4 1.3 1.3 0 0 1-.9-1.9.5.5 0 0 0 0-.5L7.3 9c0-.1-.1-.2-.4-.2a1.3 1.3 0 0 1-1.1-1.2 1.5 1.5 0 0 1 .9-1.3 1.2 1.2 0 0 1 1.5.5c.1.2.2.2.5.2h12.7c.2 0 .4 0 .5-.3a1.1 1.1 0 0 1 1.4-.5 1.4 1.4 0 0 1 .9 1.2 1.3 1.3 0 0 1-1.1 1.3z" fill="#cd0124"/><path d="M15 12.4a.5.5 0 0 0 .5 0l5.6-4.1.2-.2V8H8.7a.8.8 0 0 1 .3.2zM16 13.1l2.4 1.6c.2.1.5 0 .8 0l.2-.3 2.1-4.9.1-.3h-.1L16 13.1z" fill="#cd0124"/></svg>