<svg version="1.1" xmlns="http://www.w3.org/2000/svg" x="0" y="0" viewBox="0 0 2000 2000" xml:space="preserve" enable-background="new 0 0 2000 2000"><path d="M1000 2000c552.3 0 1000-447.7 1000-1000S1552.3 0 1000 0 0 447.7 0 1000s447.7 1000 1000 1000z" fill="#070a0e"/><path d="M577.7 1335.3a100.7 100.7 0 0 1-48.2-85.8v-195.4a42 42 0 0 1 63.2-36.2l440.9 257.1a83.8 83.8 0 0 1 41.7 72.5v202.4a50.2 50.2 0 0 1-76.6 43l-421-257.6zm657.2-370.9a84.2 84.2 0 0 1 41.7 72.5v410.8c0 12.1-6.5 23.3-17.1 29.2l-96.5 54.3c-1.2.7-2.5 1.2-3.9 1.6v-228.1a84 84 0 0 0-40.9-72.1L731 1001V743.5a42 42 0 0 1 63.2-36.2l440.7 257.1zm193-303.4a83.9 83.9 0 0 1 41.8 72.6v600a34 34 0 0 1-17.7 29.5l-91.5 49.4V994.8a84.1 84.1 0 0 0-40.7-72L924 685.4V441.2a42.1 42.1 0 0 1 63-36.3L1427.9 661z" fill-rule="evenodd" clip-rule="evenodd" fill="#00d395"/></svg>