<?xml version="1.0" encoding="UTF-8" standalone="no"?>
<svg
   id="svg"
   width="299.89603"
   height="299.48822"
   viewBox="0 0 299.89603 299.48822"
   version="1.1"
   sodipodi:docname="CRO.svg"
   inkscape:version="1.1 (c68e22c387, 2021-05-23)"
   xmlns:inkscape="http://www.inkscape.org/namespaces/inkscape"
   xmlns:sodipodi="http://sodipodi.sourceforge.net/DTD/sodipodi-0.dtd"
   xmlns="http://www.w3.org/2000/svg"
   xmlns:svg="http://www.w3.org/2000/svg">
  <defs
     id="defs8" />
  <sodipodi:namedview
     id="namedview6"
     pagecolor="#ffffff"
     bordercolor="#666666"
     borderopacity="1.0"
     inkscape:pageshadow="2"
     inkscape:pageopacity="0.0"
     inkscape:pagecheckerboard="0"
     showgrid="false"
     inkscape:zoom="3.151014"
     inkscape:cx="54.585604"
     inkscape:cy="164.39153"
     inkscape:window-width="3440"
     inkscape:window-height="1372"
     inkscape:window-x="0"
     inkscape:window-y="0"
     inkscape:window-maximized="1"
     inkscape:current-layer="svg"
     inkscape:snap-global="true"
     inkscape:snap-bbox="true"
     inkscape:snap-bbox-edge-midpoints="true" />
  <g
     id="svgg"
     transform="translate(-49.540737,-49.538611)">
    <path
       id="path1"
       d="m 92.331787,188.87434 31.120733,93.58697 77.63904,22.87355 60.82159,-17.43968 42.15997,-89.00136 -29.1663,-82.96655 -72.79284,-27.492388 -76.49962,22.805738 -35.280884,86.97114 M 214.31436,66.543065 c 81.079,6.938 121.52557,54.841035 115.68357,136.336035 -5.628,78.506 -48.25279,123.04234 -126.96979,122.97834 -82.728,-0.068 -122.356411,-46.05991 -122.419411,-128.76191 -0.067,-88.465 70.330351,-125.438896 158.738351,-117.873896 M 197.6,125.471 c -0.33,0.137 -11.04,6.271 -23.8,13.63 -41.696,24.049 -38.769,22.209 -39.206,24.644 -0.124,0.69 -0.174,17.244 -0.11,36.786 l 0.116,35.531 1.4,1.277 c 1.124,1.025 56.351,33.227 61.08,35.615 2.779,1.403 -0.214,2.849 29.475,-14.248 39.645,-22.83 36.757,-21.02 37.472,-23.482 0.275,-0.947 0.373,-13.297 0.293,-36.898 l -0.12,-35.474 -1.178,-1.229 c -0.648,-0.677 -6.138,-4.093 -12.2,-7.592 -6.062,-3.498 -19.662,-11.349 -30.222,-17.446 -19.256,-11.117 -20.985,-11.953 -23,-11.114 m 4.6,7.237 c 0.66,0.328 7.59,4.286 15.4,8.796 7.81,4.51 17.8,10.276 22.2,12.814 15.392,8.877 17.408,10.122 18.101,11.18 0.726,1.107 1.346,59.746 0.69,65.221 -0.346,2.891 -1.125,3.544 -10.991,9.206 -4.51,2.588 -11.89,6.847 -16.4,9.464 -32.864,19.068 -31.399,18.357 -34.52,16.753 -1.649,-0.848 -49.711,-28.57 -52.88,-30.502 -4.134,-2.52 -3.822,0.577 -3.703,-36.711 0.102,-32.083 0.113,-32.484 0.927,-33.574 0.794,-1.064 54.222,-32.339 56.822,-33.262 1.284,-0.456 2.559,-0.276 4.354,0.615 m -27.258,24.562 c -1.499,0.725 -1.805,1.736 -5.176,17.112 -1.213,5.536 -1.164,7.199 0.234,7.903 1.455,0.732 57.345,0.732 58.8,0 1.621,-0.816 1.477,-2.77 -0.954,-12.928 -2.536,-10.599 -2.688,-11.061 -3.91,-11.917 -1.11,-0.777 -47.407,-0.939 -48.994,-0.17 m 9.858,30.33 c -1.099,1.099 -1.071,1.266 1.273,7.493 2.265,6.014 2.488,7.985 1.557,13.707 -1.322,8.112 -0.933,8.557 7.634,8.739 16.113,0.342 16.614,0.134 16.106,-6.697 -0.683,-9.164 -0.566,-10.532 1.322,-15.442 3.526,-9.173 4.412,-8.6 -13.292,-8.6 -13.267,0 -13.831,0.031 -14.6,0.8 m -18.892,5.734 c -1.864,0.953 -12.551,8.908 -13.488,10.04 -1.345,1.626 -0.818,2.847 7.355,17.043 15.451,26.836 13.509,24.384 19.305,24.382 4.206,-0.002 4.387,-0.095 9.714,-4.972 7.325,-6.705 7.312,-8.517 -0.108,-15.672 -6.025,-5.809 -5.65,-4.904 -5.886,-14.211 l -0.2,-7.893 -1.169,-1.219 c -1.435,-1.497 -10.936,-7.546 -12.603,-8.024 -0.942,-0.27 -1.593,-0.153 -2.92,0.526 m 62.418,0.2 c -3.632,1.91 -10.673,6.814 -11.419,7.952 -0.593,0.904 -0.738,2.328 -0.906,8.895 -0.235,9.14 0.091,8.337 -5.582,13.735 -7.595,7.228 -7.624,8.89 -0.27,15.609 5.264,4.811 5.777,5.075 9.851,5.075 4.087,0 5.14,-0.532 6.92,-3.493 2.009,-3.341 18.435,-32.052 19.281,-33.7 1.659,-3.231 1.439,-3.55 -6.702,-9.682 -8.156,-6.142 -7.977,-6.072 -11.173,-4.391"
       stroke="none"
       fill="#fbfbfb"
       fill-rule="evenodd"
       sodipodi:nodetypes="ccccccccccccccccccccccscccccccsccccccccccccccccccccccccscccccccccccccccccscccc" />
    <path
       id="path0"
       d="M 185,50.212 C 72.823,60.576 12.168,188.175 74.627,282.4 137.768,377.652 281.177,369.19 333.002,267.154 386.362,162.097 302.619,39.345 185,50.212 m 35.6,86.373 c 10.56,6.097 24.16,13.948 30.222,17.446 6.062,3.499 11.552,6.915 12.2,7.592 l 1.178,1.229 0.12,35.474 c 0.08,23.601 -0.018,35.951 -0.293,36.898 -0.715,2.462 2.173,0.652 -37.472,23.482 -29.689,17.097 -26.696,15.651 -29.475,14.248 -4.729,-2.388 -59.956,-34.59 -61.08,-35.615 l -1.4,-1.277 -0.116,-35.531 c -0.064,-19.542 -0.014,-36.096 0.11,-36.786 0.437,-2.435 -2.49,-0.595 39.206,-24.644 12.76,-7.359 23.47,-13.493 23.8,-13.63 2.015,-0.839 3.744,-0.003 23,11.114 m -22.754,-4.492 c -2.6,0.923 -56.028,32.198 -56.822,33.262 -0.814,1.09 -0.825,1.491 -0.927,33.574 -0.119,37.288 -0.431,34.191 3.703,36.711 3.169,1.932 51.231,29.654 52.88,30.502 3.121,1.604 1.656,2.315 34.52,-16.753 4.51,-2.617 11.89,-6.876 16.4,-9.464 9.866,-5.662 10.645,-6.315 10.991,-9.206 0.656,-5.475 0.036,-64.114 -0.69,-65.221 -0.693,-1.058 -2.709,-2.303 -18.101,-11.18 -4.4,-2.538 -14.39,-8.304 -22.2,-12.814 -18.213,-10.518 -17.541,-10.197 -19.754,-9.411 m 26.09,25.347 c 1.222,0.856 1.374,1.318 3.91,11.917 2.431,10.158 2.575,12.112 0.954,12.928 -1.455,0.732 -57.345,0.732 -58.8,0 -1.398,-0.704 -1.447,-2.367 -0.234,-7.903 3.371,-15.376 3.677,-16.387 5.176,-17.112 1.587,-0.769 47.884,-0.607 48.994,0.17 m -9.894,30.202 c 1.055,1.055 0.914,1.87 -1.35,7.758 -1.888,4.91 -2.005,6.278 -1.322,15.442 0.508,6.831 0.007,7.039 -16.106,6.697 -8.567,-0.182 -8.956,-0.627 -7.634,-8.739 0.931,-5.722 0.708,-7.693 -1.557,-13.707 -3.362,-8.932 -4.389,-8.293 13.327,-8.293 13.494,0 13.819,0.019 14.642,0.842 m -38.891,8.742 c 2.812,1.776 5.638,3.778 6.28,4.448 l 1.169,1.219 0.2,7.893 c 0.236,9.307 -0.139,8.402 5.886,14.211 7.42,7.155 7.433,8.967 0.108,15.672 -5.327,4.877 -5.508,4.97 -9.714,4.972 -5.796,0.002 -3.854,2.454 -19.305,-24.382 -10.052,-17.46 -9.94,-15.352 -1.175,-21.977 9.375,-7.087 8.716,-7.005 16.551,-2.056 m 57.022,-3.594 c 1.109,0.421 13.29,9.474 14.153,10.518 0.754,0.913 0.703,2.688 -0.125,4.299 -0.846,1.648 -17.272,30.359 -19.281,33.7 -1.78,2.961 -2.833,3.493 -6.92,3.493 -4.074,0 -4.587,-0.264 -9.851,-5.075 -7.354,-6.719 -7.325,-8.381 0.27,-15.609 5.673,-5.398 5.347,-4.595 5.582,-13.735 0.241,-9.406 0.007,-8.895 5.891,-12.843 6.973,-4.678 8.55,-5.406 10.281,-4.748"
       stroke="none"
       fill="#052c64"
       fill-rule="evenodd" />
  </g>
</svg>
