<svg version="1.1" width="316" height="315.9" xmlns="http://www.w3.org/2000/svg"><g stroke="none" fill-rule="evenodd"><path d="M195.8 85c-19.8.8-39 7-55.6 18.2-4.9 3.3-5.8 4.2-5.8 5.3 0 1 23.2 24.5 24.5 25 .4 0 2.5-.8 5.2-2.3a72.8 72.8 0 0 1 70.6 0c2.4 1.3 4.7 2.4 5 2.4.7 0 24.6-24 24.8-25 .3-1-.9-2-6-5.6a106.5 106.5 0 0 0-62.7-18m91.4 4.7a17.9 17.9 0 1 0 11.8 33.7 17.9 17.9 0 0 0-11.8-33.7m-185.8.2c-19.6 7-14.1 35.5 6.5 34.4a17.6 17.6 0 0 0 6.5-33.6 21 21 0 0 0-13-.8m23.8 34.9c-2.7 2.6-.7 7.2 3.2 7.2 1 0 1.7-.4 2.6-1.4 4-3.9-1.7-9.6-5.8-5.8m144-.1c-1.7 1.5-2 3.5-.7 5.3a4 4 0 0 0 7.5-2.3 4 4 0 0 0-6.8-3m-162.9 10.4c-17.1 20.3-25 56-19 85.9 3.1 16 16 43.4 20.4 43.4 1 0 25.1-23.8 25.1-24.7 0-.2-1.3-3-3-6.2a72 72 0 0 1-.2-67.8c1.8-3.4 3.2-6.4 3.2-6.7 0-.2-5.4-5.8-12-12.5-12.4-12.4-13.2-13-14.5-11.4m172.2 11.2c-13.7 13.4-13.1 12.5-10.7 16.5a76 76 0 0 1 8.9 49.6c-2.1 9.6-5.4 18.2-9.3 24.5-1.9 3-2.2 2.5 10.9 15.6 13.8 13.8 13 13.3 16 9.2 27-36.4 26.8-92-.6-125.6-2.2-2.7-1.9-2.9-15.2 10.2m-141.7-9.5c-2 2-1.5 5.3 1 6.6a4.2 4.2 0 0 0 6-3.1c.7-3.9-4.2-6.3-7-3.5m120.8-.2c-3.8 3.2.3 9.1 4.7 6.8 3.8-1.9 2.3-7.8-1.8-7.8a4 4 0 0 0-2.9 1m-108.4 11.8c-3.3 3.2.7 8.7 4.7 6.6.7-.3 1.6-1.2 2-1.9 2-4-3.5-8-6.7-4.7m95.6-.2a4 4 0 0 0 .8 6.8c2.7 1.4 5 .2 6.2-3.1 1-3.4-4.1-6-7-3.7m-83.2 12.6c-3.3 3.3.6 8.8 4.7 6.6a4 4 0 0 0-1.8-7.8c-1.4 0-2 .2-3 1.2m71.8-.2c-4 3.4.5 9.3 5 6.6 2.4-1.5 2.4-5.3 0-7-1.4-1-3.6-.8-5 .4m-59.7 12a4.2 4.2 0 0 0-.5 6.4c2.9 2.8 7.9.3 7.1-3.6-.5-2.8-4.2-4.4-6.6-2.7m48 .3c-1.5 1.3-1.8 2.9-1 4.8 1.7 4.2 8 2.8 8-2 0-3.3-4.3-5-7-2.8m-35.2 11c-5 2.4-1.7 9.6 3.4 7.4a4 4 0 0 0 1-6.7c-1.4-1.4-2.8-1.6-4.4-.8m23 1c-1.2.7-1.9 2.9-1.3 4.4 2 4.6 8.6 2.3 7-2.4a4 4 0 0 0-5.6-2m-11 11.7a4 4 0 0 0-2.2 4.3c.5 2.8 4.3 3.9 6.4 1.8 3-3-.3-7.8-4.2-6m-12.3 11.1c-4.7 2.4-1.3 8.9 3.6 6.8a3.7 3.7 0 0 0 0-6.8c-1.7-.7-2.1-.7-3.6 0m24.4-.2c-3.9 1.7-3.5 7.3.6 8.2 2.7.6 5.6-2.3 5-5-.5-2.3-3.6-4-5.6-3.2m12 11.8a4.2 4.2 0 0 0-1.1 6.7 4.1 4.1 0 0 0 6.7-1.1c1.7-3.6-2.2-7.3-5.7-5.6m-48.7.3c-1.8 1-2.6 2-2.6 3.5 0 4.3 7.1 5.3 8.8 1.2 1.3-3.1-3.1-6.4-6.2-4.7M163 231.2c-3.5 1.4-3.4 6.4 0 7.8 2.6 1.1 5.8-1 5.8-3.8s-3.3-5-5.8-4m72 .2a4.1 4.1 0 0 0-1.1 6.7c2 2.1 5.4 1.6 6.7-1 1.7-3.8-2-7.5-5.7-5.7m-84.3 12.2c-2.4 1-3.4 4.5-1.8 6.5 3.2 4 9.4 0 7-4.5-1-2-3.3-2.8-5.2-2m95 .2c-2.5 1.1-3 4.7-1 6.7 2.6 2.6 7 .7 7-3.1 0-2.9-3.2-4.8-6-3.6m-107.4 11.4c-1.5.6-2.6 2.4-2.6 4 0 4.7 7.1 5.5 8.2 1 .9-3.2-2.6-6.3-5.6-5m120.1.2a4 4 0 0 0-.7 6.8c2.3 1.9 5.5 1.1 6.6-1.7 1.5-3.3-2.7-6.9-5.9-5m-112 23c-12.5 12.6-12.8 13-11 14.6 4.2 3.9 18.7 12 27.2 15 32.7 12.1 71 6.9 98.8-13.5 4.6-3.4 5.2-2.3-8.8-16.3-13.5-13.5-12.3-12.8-16.9-10.1a71.8 71.8 0 0 1-71.9.4c-5.3-3.2-3.9-4-17.5 9.9m-20.8-10c-2.9 2.9-1.2 7.1 2.7 7.1a4 4 0 0 0 2.3-7.5c-2-1.3-3.4-1.2-5 .5m144.5-.8c-3.8 2-2.3 7.8 2 7.8 2.5 0 4.1-1.6 4-4 0-3.5-3-5.4-6-3.8m-165.6 6.6a18 18 0 0 0-8.6 29.8c11.1 11.8 30.3 3 29.4-13.5-.5-10.5-11-18.7-20.8-16.3m182.8.5a17.7 17.7 0 0 0-7.1 29.5 17.9 17.9 0 0 0 30.4-10 18 18 0 0 0-23.3-19.5" fill="#f8f8f8" transform="translate(-41.5 -41.5)"/><path d="M189.8 41.7a127.5 127.5 0 0 0-18.8 1.9C112.6 53 61.3 100.6 46.2 159c-1.8 7.2-2.2 8.9-3.8 19.4-1 6-1.2 35-.4 39.5l1 6.7a158.8 158.8 0 0 0 124.6 130.2c12.8 2.5 14 2.6 31.8 2.6 16 0 18-.1 25.8-1.4A158.1 158.1 0 0 0 357 218c.8-6 .7-34.2-.2-39a158.6 158.6 0 0 0-139-137c-3.6-.5-16.7-.7-28-.3m22.4 44.1a106 106 0 0 1 46.2 17.2c5.2 3.5 6.4 4.6 6.1 5.7-.2 1-24.1 24.9-24.8 24.9-.3 0-2.6-1-5-2.4a72.8 72.8 0 0 0-70.6 0 16.8 16.8 0 0 1-5.2 2.2c-1.3-.4-24.5-24-24.5-24.9 0-1.1 1-2 5.8-5.3a105 105 0 0 1 72-17.4m88.7 4.7a17.9 17.9 0 0 1 1.8 31.1 17.9 17.9 0 1 1-1.8-31.1m-186.5.2a17.6 17.6 0 0 1-6.5 33.6C87.3 125.4 82 97 101.4 90a21 21 0 0 1 13 .8m15.7 33.3c2.5 1.2 3 4.6 1 6.6-3 3-7.1 1-7.1-3.3 0-2.8 3.3-4.5 6.1-3.3m144.7.8c1 1 1.2 1.5 1.2 3a4 4 0 0 1-7.5 2.2c-2.8-4 2.9-8.7 6.3-5.2m-154 21.7c6.6 6.7 12 12.3 12 12.5 0 .3-1.4 3.3-3.2 6.7a72 72 0 0 0 .2 67.8c1.7 3.2 3 6 3 6.2 0 1-24.1 24.7-25 24.7-1.8 0-7.3-8.5-12-18.2a108.2 108.2 0 0 1 8.1-107.8c3.9-5.5 2.5-6.2 16.8 8.1m173-10.4c27.4 33.6 27.6 89.2.6 125.6-3 4.1-2.2 4.6-16-9.2-13-13-12.8-12.7-11-15.6a73.4 73.4 0 0 0 .5-74c-2.4-4-3-3.2 10.7-16.6 13.3-13.1 13-12.9 15.2-10.2m-152 0c2.4 1 3 4.6 1 6.6-1.8 2-5.6 1.4-6.7-1-1.7-3.8 1.8-7.4 5.7-5.7m121.5.8c2.6 2.6.8 7.2-2.8 7.2a5 5 0 0 1-3.8-2.5c-2.1-4 3.4-8 6.6-4.7m-108.4 11.4a4 4 0 0 1-.9 6.8c-2.7 1.4-5.9-.7-5.9-3.9 0-3.4 4-5.2 6.8-2.9m95.2-.3c1 .7 2 3 1.8 4-1.4 4.3-6 5-8 1.2-2-3.6 2.8-7.6 6.2-5.2M166.8 160c2.7 2.1 2.5 5.8-.5 7.3-4 2.2-8-3.3-4.7-6.6 1.2-1.3 4-1.7 5.2-.7m71.6.2c2.3 1.6 2.3 5.4-.1 7-4.5 2.6-9-3.3-5-6.7 1.4-1.2 3.6-1.3 5-.3M178.9 173a4 4 0 0 1-1 6.9c-3.6 1.4-7-1.9-5.6-5.3a4.1 4.1 0 0 1 6.6-1.6m48.5.2c1 .9 1.3 1.4 1.3 2.7 0 4.7-6.3 6.1-8 1.9-1.8-4.3 3.2-7.7 6.7-4.6m-36.4 11.5a4 4 0 0 1-1.1 6.7c-5.1 2.2-8.4-5-3.4-7.5 1.6-.8 3-.6 4.5.8m23 .3c3 2 1.3 6.8-2.3 6.8-1.8 0-2.7-.7-3.5-2.5-1.4-3.3 2.8-6.4 5.8-4.3m-11.1 12.4c2.3 2.3.5 6.4-2.8 6.4-2.8 0-4.5-2.6-3.4-5.3 1-2.5 4.2-3 6.2-1m-13 10.3a3.7 3.7 0 0 1 0 6.8c-5 2-8.3-4.4-3.6-6.8 1.5-.7 1.9-.7 3.6 0m25 .9c2.3 2 1.8 5.4-1 6.7-1.8.8-3.3.5-4.8-1-3.8-4 2-9.5 5.9-5.7m12.4 11.6c1.4 1.4 1.7 3 .9 4.7a4.1 4.1 0 0 1-6.7 1.1c-4-3.9 1.8-9.7 5.8-5.8m-49.5-.5c2 .8 3 2.9 2.2 4.6-1.7 4-8.8 3.1-8.8-1.2 0-3 3.4-4.8 6.6-3.4m-11.6 11.6c4 1.6 3.3 6.6-1.1 8-2 .6-4.7-1.8-4.7-4.2 0-3.2 2.8-5 5.8-3.8m72.4 0c3.3 1.6 3.2 6 0 7.6a4.2 4.2 0 0 1-5.6-5.5c1-2.3 3.3-3.1 5.6-2M154 243.7c3.2 1.7 3 6.3-.3 7.7-3.9 1.6-7.5-3.2-4.8-6.5 1.4-1.8 3.1-2.2 5.1-1.2m96.5 1c2.2 2 1.2 5.7-1.7 6.6-3.5 1.2-6.5-2-5-5.6 1.1-2.7 4.5-3.3 6.7-1m-108.5 11a4 4 0 0 1-2.3 7.4 4 4 0 0 1-3.2-6.6c1.5-2 3.5-2.3 5.5-.9m121 .2c3 2.7 1.3 7.3-2.7 7.3-3 0-5.1-3.3-3.7-6 1.2-2.3 4.4-3 6.3-1.3m-99.2 12.7a71.8 71.8 0 0 0 72-.4c4.5-2.7 3.3-3.4 16.8 10.1 14 14 13.4 13 8.8 16.3a106.3 106.3 0 0 1-119.9 2.8c-6-4-7-4.8-7-6 0-1.4 23.3-25 24.7-25 .5 0 2.6 1 4.6 2.2m-33.3-.5a4 4 0 0 1-2.3 7.5c-3.9 0-5.6-4.2-2.7-7 1.6-1.7 3-1.8 5-.5m143.3-.5a4.3 4.3 0 0 1 1.1 6.8c-3.3 3.4-8.8-.6-6.6-4.8 1-2 3.6-3 5.5-2M115 275.8a17.9 17.9 0 0 1 0 32.2c-13.4 6.4-27.9-7-23.4-21.5a17 17 0 0 1 23.4-10.7m182-1.2a17.8 17.8 0 0 1 8.5 29.6c-11 11.7-30.7 3.7-30.7-12.4 0-11.5 11-20.1 22.2-17.2" fill="#040404" transform="translate(-41.5 -41.5)"/></g></svg>