<svg version="1.1" xmlns="http://www.w3.org/2000/svg" x="0" y="0" viewBox="0 0 193 193" xml:space="preserve" enable-background="new 0 0 193 193"><path d="M122.2 50.2a14.5 14.5 0 0 1 20.4 0 14.5 14.5 0 0 1-12.2 24.5h-.7a7.5 7.5 0 0 0-8 4.8c-.7 1.8-.6 3.8.2 5.6a27.7 27.7 0 0 1-36.7 36.7 7 7 0 0 0-5.7-.2c-1.8.7-3.3 2-4.1 3.8a7.9 7.9 0 0 0-.7 3.7v.7c.8 4.6-.8 9.3-4 12.6a14.5 14.5 0 0 1-20.4 0 14.5 14.5 0 0 1 12.2-24.5h.2l1.5.2c1.1 0 2.1-.2 3.1-.7a7.2 7.2 0 0 0 3.8-4.1c.7-1.8.7-3.9-.2-5.8a27.7 27.7 0 0 1 36.7-36.7 7 7 0 0 0 5.7.2c1.8-.7 3.3-2 4.2-3.8.7-1.4.8-3 .6-4.5-.7-4.5.8-9.2 4.1-12.5zm-14.3 57.6a16 16 0 0 0 0-22.6 16 16 0 0 0-22.6 0 16 16 0 0 0 0 22.6 16 16 0 0 0 22.6 0zM96.5 0a96.5 96.5 0 1 1 0 193 96.5 96.5 0 0 1 0-193zm51.4 76a22 22 0 0 0 0-30.9A22 22 0 0 0 111 56.2a42.6 42.6 0 0 0-45 9.7 42.6 42.6 0 0 0-9.6 45.1 22 22 0 0 0-11.2 36.9 22 22 0 0 0 36.9-11.3 42.1 42.1 0 0 0 44.9-9.7 42.6 42.6 0 0 0 9.8-44.8c4-1 7.9-3 11.1-6.1z" fill="#38a2ff"/></svg>