<svg width="32" height="32" xmlns="http://www.w3.org/2000/svg"><g fill="none"><circle cx="16" cy="16" r="16" fill="#8834FF"/><path d="M7 21.2h.6c.3 0 .7 0 1-.2a5.5 5.5 0 0 0 2-1c.2 0 .3-.2.5-.3a5.2 5.2 0 0 0 1.3-2.3H11a4.1 4.1 0 0 1-1-.2l.2-.5.5-1.3a.6.6 0 0 1 .1-.2.2.2 0 0 1 .2 0H12.4V15a4.7 4.7 0 0 0-.9-1.7 6.4 6.4 0 0 0-.6-.7 4.7 4.7 0 0 0-1-.7 6.3 6.3 0 0 0-1-.5 6 6 0 0 0-1-.2h-1V11l-.3-.7-.3-.7-.3-.6h1.4a8.7 8.7 0 0 1 2 .2 9 9 0 0 1 3.3 1.7l.2.3a6.3 6.3 0 0 1 2 3.2l.1.6h2v-.4a7.1 7.1 0 0 1 1.6-3 5.7 5.7 0 0 1 .5-.5 8.3 8.3 0 0 1 1.3-1 7.6 7.6 0 0 1 2.4-1h.8l.7-.1H26l-.2.4-.5 1.2a5.9 5.9 0 0 0-.1.4h-.4a6.3 6.3 0 0 0-2.7.7 5.3 5.3 0 0 0-1 .7l-.5.4a5 5 0 0 0-.8 1 5.5 5.5 0 0 0-.4 1.2H21c.2 0 .5 0 .8.2l-.2.6-.6 1.3-.2.1h-1.4l.1.4a4.5 4.5 0 0 0 1 1.6l.3.3c.3.4.7.7 1.1.9a5.9 5.9 0 0 0 2.3.7h1v.1l.5 1.1.4 1h-.4a16.3 16.3 0 0 1-1.8 0 16.3 16.3 0 0 1-1.1-.3 8.5 8.5 0 0 1-1.3-.4A8 8 0 0 1 20 22a19.3 19.3 0 0 1-.7-.5 4.3 4.3 0 0 1-.5-.4 7.4 7.4 0 0 1-1.4-2 6 6 0 0 1-.4-1.4v-.1l-.2-.1H15a6.7 6.7 0 0 1-.5 1.4 5.7 5.7 0 0 1-.6 1.1 9.9 9.9 0 0 1-.6.8 4.7 4.7 0 0 1-.5.5l-.9.7a7.2 7.2 0 0 1-1.1.7 8.1 8.1 0 0 1-2.4.7h-.8a4.3 4.3 0 0 1-.5 0H6.2s-.1 0 0 0l.5-1.3c0-.3.2-.5.3-.8z" fill="#FFF"/></g></svg>