<svg id="svg" version="1.1" width="32" height="32" viewBox="0 0 400 400" xmlns="http://www.w3.org/2000/svg" xmlns:xlink="http://www.w3.org/1999/xlink" ><g id="svgg"><path id="path0" d="M42.000 72.168 C 27.791 73.124,25.871 73.938,25.886 79.000 L 25.892 81.286 32.857 97.286 C 36.688 106.086,40.130 113.758,40.506 114.336 C 41.806 116.331,43.433 116.730,51.866 117.126 C 82.321 118.555,109.179 134.007,123.800 158.512 C 126.812 163.560,130.134 170.863,131.008 174.357 L 131.205 175.143 123.245 175.150 C 110.484 175.162,108.203 175.566,106.747 178.071 C 105.781 179.733,93.198 208.593,92.534 210.668 C 91.587 213.628,91.962 216.630,93.453 218.022 C 95.788 220.204,106.079 221.429,122.086 221.429 L 130.610 221.429 130.411 222.071 C 127.846 230.377,121.152 241.507,114.070 249.246 C 98.244 266.537,76.729 276.295,51.286 277.721 C 42.054 278.239,43.574 276.535,35.213 295.739 C 27.070 314.444,27.391 313.607,27.381 316.158 C 27.360 321.582,30.242 322.444,48.286 322.409 C 113.521 322.286,168.834 282.977,183.547 226.286 L 184.771 221.571 197.236 221.497 L 209.702 221.423 209.878 222.211 C 220.680 270.684,259.887 307.767,312.797 319.556 C 331.094 323.632,355.287 324.560,365.579 321.580 C 368.325 320.785,369.567 318.308,368.931 314.892 C 368.600 313.109,355.666 283.012,354.387 281.046 C 353.112 279.088,349.595 278.305,342.000 278.290 C 317.696 278.241,289.031 264.081,272.980 244.195 C 268.059 238.099,260.286 224.328,260.286 221.707 C 260.286 221.534,262.914 221.426,267.214 221.421 C 278.369 221.409,281.358 220.914,282.925 218.820 C 284.129 217.209,297.439 186.390,297.794 184.389 C 299.062 177.242,294.103 175.532,271.214 175.223 C 265.046 175.140,260.000 175.016,260.000 174.947 C 260.000 174.574,262.726 168.253,263.863 165.988 C 277.297 139.240,307.499 120.074,339.492 117.994 C 342.050 117.827,345.912 117.579,348.074 117.441 C 355.086 116.995,353.920 118.505,362.579 98.667 L 369.543 82.714 369.645 80.143 C 369.870 74.502,366.767 73.341,350.429 72.955 C 283.348 71.369,225.438 111.695,210.749 170.221 L 209.549 175.000 197.382 175.074 L 185.215 175.149 184.144 170.646 C 171.322 116.776,121.271 77.327,59.714 72.575 C 55.517 72.251,44.523 71.998,42.000 72.168 " stroke="none" fill="#04848c" fill-rule="evenodd"></path><path id="path1" d="" stroke="none" fill="#08848c" fill-rule="evenodd"></path><path id="path2" d="" stroke="none" fill="#08848c" fill-rule="evenodd"></path><path id="path3" d="" stroke="none" fill="#08848c" fill-rule="evenodd"></path><path id="path4" d="" stroke="none" fill="#08848c" fill-rule="evenodd"></path></g></svg>
