<svg version="1.1" xmlns="http://www.w3.org/2000/svg" x="0" y="0" viewBox="0 0 358.8 179.8" xml:space="preserve" enable-background="new 0 0 358.8 179.8"><linearGradient id="a" gradientUnits="userSpaceOnUse" x1="224.8" y1="257.8" x2="348.1" y2="133.5" gradientTransform="matrix(1 0 0 -1 0 272)"><stop offset=".2" stop-color="#f15a24"/><stop offset=".7" stop-color="#fbb03b"/></linearGradient><path d="M271.6 0c-20 0-41.9 10.9-65 32.4a285 285 0 0 0-27.5 29.8L202.6 89c6.7-8.4 16.2-19.8 27.3-30.1 20.5-19.2 33.9-23.1 41.6-23.1a53.2 53.2 0 0 1 52.2 54.1 53.6 53.6 0 0 1-52.2 54.1c-1.4 0-3-.2-5-.6a63.9 63.9 0 0 0 26 6.7c52.8 0 63.2-36.5 63.8-39.1a95.6 95.6 0 0 0 2.4-20.9C358.6 40.4 319.6 0 271.6 0z" fill="url(#a)"/><linearGradient id="b" gradientUnits="userSpaceOnUse" x1="133.9" y1="106.4" x2="10.7" y2="230.7" gradientTransform="matrix(1 0 0 -1 0 272)"><stop offset=".2" stop-color="#ed1e79"/><stop offset=".9" stop-color="#522785"/></linearGradient><path d="M87.1 179.8c20 0 41.9-10.9 65-32.4a285 285 0 0 0 27.5-29.8l-23.5-26.8a276.2 276.2 0 0 1-27.3 30.1c-20.5 19-34 23.1-41.6 23.1A53.2 53.2 0 0 1 35 89.9a53.6 53.6 0 0 1 52.2-54.1c1.4 0 3 .2 5 .6a63.9 63.9 0 0 0-26-6.7C13.4 29.6 3 66.1 2.4 68.8A95.6 95.6 0 0 0 0 89.7c0 49.7 39 90.1 87.1 90.1z" fill="url(#b)"/><path d="M127.3 59.7c-5.8-5.6-34-28.5-61-29.3C18.1 29.2 4 64.2 2.7 68.7A88.3 88.3 0 0 1 87.2 0c33.3 0 67 32.7 91.9 62.2l.1-.1 23.5 26.8s14 16.5 28.8 31c5.8 5.6 33.9 28.2 60.9 29 49.5 1.4 63.2-35.6 63.9-38.4a88 88 0 0 1-84.6 69.1c-33.3 0-67-32.7-92-62.2l-.1.2-23.5-26.8c.1 0-13.9-16.6-28.8-31.1zM2.7 69.1l.1-.3-.1.3z" fill-rule="evenodd" clip-rule="evenodd" fill="#29abe2"/></svg>