<?xml version="1.0" encoding="UTF-8" standalone="no"?>
<svg
   version="1.1"
   width="331.91113"
   height="332.68204"
   id="svg8"
   sodipodi:docname="NEAR.svg"
   inkscape:version="1.1 (c68e22c387, 2021-05-23)"
   xmlns:inkscape="http://www.inkscape.org/namespaces/inkscape"
   xmlns:sodipodi="http://sodipodi.sourceforge.net/DTD/sodipodi-0.dtd"
   xmlns="http://www.w3.org/2000/svg"
   xmlns:svg="http://www.w3.org/2000/svg">
  <defs
     id="defs12" />
  <sodipodi:namedview
     id="namedview10"
     pagecolor="#ffffff"
     bordercolor="#666666"
     borderopacity="1.0"
     inkscape:pageshadow="2"
     inkscape:pageopacity="0.0"
     inkscape:pagecheckerboard="0"
     showgrid="false"
     inkscape:zoom="2.0775"
     inkscape:cx="166.06498"
     inkscape:cy="166.54633"
     inkscape:window-width="3440"
     inkscape:window-height="1372"
     inkscape:window-x="0"
     inkscape:window-y="0"
     inkscape:window-maximized="1"
     inkscape:current-layer="svg8" />
  <g
     stroke="none"
     fill-rule="evenodd"
     id="g6"
     transform="translate(-33.774391,-33.175598)">
    <path
       d="m 133.8,117.7 a 18,18 0 0 0 -15.3,13.5 c -1,4 -1.1,132.3 0,136.3 3.9,14 19.3,18.3 29.5,8 2.5,-2.5 6.2,-7.8 23.3,-33.3 11.8,-17.7 12.8,-19.7 10.3,-22 -2.4,-2.1 -5,-0.5 -19.4,12 -12.9,11.2 -14.7,12.2 -17.2,9.8 -1.8,-1.7 -1.9,-2.6 -1.7,-43 0.1,-41.8 0,-40 2.5,-41 3,-1.4 -0.7,-5.4 53.6,59.6 25,30 46.8,55.9 48.4,57.4 11.6,11.6 30,7.3 33.8,-7.8 1,-3.9 0.8,-133 -0.1,-136.2 -3.5,-11.2 -14.2,-16.4 -24.1,-11.5 -5.2,2.5 -5.7,3.1 -30.3,39.8 -9.8,14.6 -11,17.2 -8.8,19.2 2.8,2.4 3.8,1.8 19.6,-11.9 12.7,-11 14.9,-12.2 17.2,-9.7 1.7,1.8 1.7,2.5 1.7,41.9 0,40.8 0,40.2 -2,41.7 -3,2.2 -0.7,4.7 -53.3,-58.2 A 4594.1,4594.1 0 0 0 152.4,124 20.8,20.8 0 0 0 133.8,117.7"
       fill="#fafafa"
       id="path2" />
    <path
       d="m 181.8,34.2 a 163,163 0 0 0 -148,165.2 c 0,80.8 53.4,146.9 131.8,162.8 A 165.3,165.3 0 0 0 364.6,217.6 165.5,165.5 0 0 0 181.8,34.2 m -38.6,84 c 6.6,1.9 4.4,-0.5 58.3,64 52.6,63 50.3,60.5 53.2,58.3 2,-1.5 2,-0.9 2,-41.7 0.1,-39.4 0,-40.1 -1.6,-41.9 -2.3,-2.5 -4.5,-1.2 -17.2,9.7 -15.8,13.7 -16.8,14.3 -19.6,11.9 -2.2,-2 -1,-4.6 8.8,-19.2 24.6,-36.7 25.1,-37.3 30.3,-39.8 9.9,-4.9 20.6,0.3 24,11.5 1,3.2 1.2,132.3 0.2,136.2 -3.7,15.1 -22.2,19.4 -33.8,7.8 a 4140,4140 0 0 1 -48.4,-57.4 c -54.3,-65 -50.7,-61 -53.6,-59.7 -2.5,1.2 -2.4,-0.7 -2.5,41.1 -0.2,40.4 -0.1,41.3 1.7,43 2.5,2.4 4.3,1.4 17.2,-9.8 14.5,-12.5 17,-14.1 19.4,-12 2.5,2.3 1.5,4.3 -10.3,22 -17.1,25.5 -20.8,30.8 -23.3,33.3 -10.2,10.3 -25.6,6 -29.5,-8 -1.1,-4 -1,-132.4 0,-136.3 3,-10.7 13.3,-16 24.7,-13"
       fill="#040404"
       id="path4" />
  </g>
</svg>
