<svg data-name="Layer 1" xmlns="http://www.w3.org/2000/svg" viewBox="0 0 49.5 42.9"><path d="m12.8.3 24.3 14v14.3L0 7 11.9.3a1 1 0 0 1 1 0z" fill="#3ca9e5"/><path fill="#2853c3" d="M37.1 0 24.7 7.1 37.1 14.3 37.1 0z"/><path d="M37.1 0 49 6.9a1 1 0 0 1 .5.8v28L37 28.6V0z" fill="#1a4199"/><path d="m49.5 35.7-12 6.9a1 1 0 0 1-1 0l-24.2-14V14.3z" fill="#2853c3"/><path d="M0 7.1v28a1 1 0 0 0 .5.9l11.9 6.9V14.3z" fill="#60beff"/><path fill="#3ca9e5" d="M12.4 42.8 24.7 35.7 12.4 28.6 12.4 42.8z"/></svg>