<svg data-name="Layer 1" xmlns="http://www.w3.org/2000/svg" viewBox="0 0 188.9 218.1"><path fill="#9290b0" d="M141.7 81.8 141.7 81.8 141.7 136.3 188.9 109.1 188.9 109.1 188.9 54.5 141.7 81.8z"/><path fill="#a2eee3" d="M188.9 163.6 188.9 163.6 141.7 136.3 141.7 190.9 141.7 190.9 188.9 218.1 188.9 163.6z"/><path d="M94.5 54.5V0L0 54.5l47.2 27.3 47.3-27.3z" fill="#46ddc8"/><path fill="#262261" d="M94.5 163.6 47.2 136.3 47.2 136.3 0 163.6 47.2 190.9 47.2 190.9 47.2 190.9 47.2 190.9 94.5 218.1 94.5 163.6 94.5 163.6z"/><path fill="#9290b0" d="M0 54.5 0 109.1 0 109.1 0 163.6 47.2 136.3 47.2 136.3 47.2 81.8 0 54.5z"/><path fill="#46ddc8" d="M141.7 136.3 94.5 163.6 94.5 163.6 94.5 218.1 141.7 190.9 141.7 190.9 141.7 136.3z"/><path fill="#262261" d="M141.7 81.8 188.9 54.5 141.7 27.3 141.7 27.3 141.7 27.3 141.7 27.3 141.7 27.3 141.7 27.3 94.5 0 94.5 54.5 94.5 54.5 141.7 81.8 141.7 81.8 141.7 81.8 141.7 81.8z"/></svg>