<svg version="1.1" id="prefix__Layer_1" xmlns="http://www.w3.org/2000/svg" x="0" y="0" viewBox="0 0 641.7 649" xml:space="preserve" enable-background="new 0 0 641.7 649"><style>.prefix__st0{fill:#f00500}.prefix__st1{fill:#fff}.prefix__st2{fill:none}.prefix__st4{fill:#ff9300}.prefix__st5{fill:#ff8300}</style><g id="prefix__Group_938" transform="translate(-953.3 -232)"><g id="prefix__Group_931"><path id="prefix__Path_8573" class="prefix__st0" d="M1423.2 289.1a413.2 413.2 0 0 0-45.6 54.1l-4.3-1.4a312.1 312.1 0 0 0-76.4-14.8c-7.8-.6-36.9-.6-46.4 0a269.9 269.9 0 0 0-75.7 14.9l-2.8 1a407 407 0 0 0-47.1-53.7 327.4 327.4 0 0 1 294.3-2.1l4 2z"/><path id="prefix__Path_8574" class="prefix__st0" d="M1578 668.4a312.3 312.3 0 0 1-99.8 141.1 323.2 323.2 0 0 1-126.3 62.3 331 331 0 0 1-155.2 0 322.5 322.5 0 0 1-170.1-105.2 308.6 308.6 0 0 1-17.2-376.5c9.6 41.3 21.4 77.6 25.8 90.7l-1.1 2.2a362.6 362.6 0 0 0-38.9 141.1l-.1 1.9a87 87 0 0 0 2 30.5c7.5 28.5 30.6 59.9 66.8 90.7 59.3 50.4 139.7 86.8 200.6 91 63.5 4.3 157.2-32.8 219.6-87 9.8-8.7 19-17.9 27.6-27.7a151.7 151.7 0 0 0 15.1-20c.3-.2.6-.5.4-.7-.1-.1.1-.4.4-.5.3-.1.5-.3.4-.5s0-.4.4-.5c.3-.1.4-.4.3-.6-.1-.2 0-.4.2-.4s.4-.3.4-.5.2-.5.4-.5.4-.2.4-.4a262 262 0 0 0 9.6-17.1 138 138 0 0 0 11-35.9c.8-5.5 1.3-15.6.9-18l-.2-2.2-.5-8a293.3 293.3 0 0 0-41-139.9l-.4-.8c3.1-9.3 15.8-48.2 25.9-92.7l.2.2 1.5 2a314.8 314.8 0 0 1 45.5 92.4 312 312 0 0 1-4.6 189.5z"/><path id="prefix__Path_8575" d="M1448.2 548.9c-.3 1.6-5 6.4-9.7 9.9-13.8 10.1-38.5 19.5-63.6 24-14.3 2.6-28.6 3-32.9.9-2.8-1.4-3.2-2.5-2.2-6.1 2.1-7.5 8.9-15.7 19.5-23.4 5.4-3.9 27.3-17.2 37.5-22.8a132.5 132.5 0 0 1 39.6-16c2.9-.4 6.4-.5 7.5 0 1.8.7 3.8 6 4.6 12.4.4 3.4.2 18.4-.3 21.1z"/><path id="prefix__Path_8576" d="M1212.6 582c-.6 1.2-3.6 2.5-7 3s-13.8.2-19.7-.5a207 207 0 0 1-60.1-17.3c-9.2-4.5-15.8-9-20.7-13.9l-2.8-2.9-.3-3.8c-.5-6.6-.4-17 .4-20.7.5-3.1 1.6-6.1 3.1-8.8.8-1 .8-1 4.4-1 4.4 0 8.1.7 14.1 2.6 12.3 3.8 30.6 13 52.9 26.4 18.4 11 25.3 16.4 30.6 23.8 3.6 4.6 6 11.1 5.1 13.1z"/><path id="prefix__Path_8577" d="m1354.2 721.2-2.7 10.8-2.7 10.5c-1.1.1-2.1.2-3.2.1h-3.2L1338 753l-4.9 11.8-.6 1.4-2.1-3.4-2.1-3.4v-27.7l-.8.2a272.5 272.5 0 0 1-91.4.3c-.1.1 0 6.5.2 14.4l.3 14.2-1.7 2.6-1.8 2.7a67.6 67.6 0 0 1-9.2-21.1l-.7-2.9-3.1.2-3.1.3-.8-3.7-1.1-6.8-.3-3.2-2.6-2.3-3.3-2.8c-.5-.4-.7-1.1-.7-1.7v-1.2l12.5.1 12.5.1.4 1.3.4 1.3 4.3.2 16.8.5 12.5.3 3.2-5 3.3-5h4.2l-.1-10.4-.1-10.4-5.5-2.4c-17.7-7.8-28.1-16.7-32-27.5-.8-2.2-.8-3-1-13-.1-9.9-.1-10.8.6-13 1.4-5 5.3-8.9 10.3-10.2 1.7-.5 6.2-.5 29.8-.5l27.8.1 3.1 1.5c3.7 1.8 5.4 3.1 7.5 5.9 2.4 3.2 3.1 5.7 3.1 11.8a88 88 0 0 1-1.5 19.2c-1.3 4.1-3.3 8-5.8 11.5a53.3 53.3 0 0 1-22.4 15.7l-2.4.9.1 10.5.1 10.5 2.2.2 2.2.2 3 4.5 2.9 4.5h13.4c7.4 0 13.9.1 14.5.2 1 .2 1.2.1 2.2-1.6l1.2-1.8h11.5c8.6-.4 11.2-.2 11.2.1z"/><path id="prefix__Path_8578" d="M1301.4 749.9c-1.9 1.1-3.2 1.6-3.5 1.4l-3.2-2.4-2.7-2.2-2.8 3c-6.1 6.6-6.3 6.9-8.1 7-2.8.3-3.4-.2-6.8-5.3l-3.2-4.8-2.8-.3-2.8-.3-1.3 2.7-1.3 2.7-2.3-.7c-1.8-.6-3.6-1.3-5.3-2.1l-3-1.5v-5.7l26.6.1 26.6.1.1 2.7c.1 3.2.2 3.1-4.2 5.6z"/></g><path id="prefix__Path_8579" class="prefix__st1" d="m1551.4 627.9-.2-2.2c-24-2.6-92.5-4.2-156.1 48.3 0 0-20.5-94-116.5-94S1147 674 1147 674c-53.8-57.9-125.8-53.7-151.8-49.9l-.1 1.9a87 87 0 0 0 2 30.5c7.5 28.5 30.6 59.9 66.8 90.7 59.3 50.4 139.7 86.8 200.6 91 63.5 4.3 157.2-32.8 219.6-87 9.8-8.7 19-17.9 27.6-27.7a151.7 151.7 0 0 0 15.1-20c.3-.2.6-.5.4-.7-.1-.1.1-.4.4-.5.3-.1.5-.3.4-.5s0-.4.4-.5c.3-.1.4-.4.3-.6-.1-.2 0-.4.2-.4s.4-.3.4-.5.2-.5.4-.5.4-.2.4-.4a262 262 0 0 0 9.6-17.1 138 138 0 0 0 11-35.9c.6-5.5 1.1-15.6.7-18zm-250 122c-1.9 1.1-3.2 1.6-3.5 1.4l-3.2-2.4-2.7-2.2-2.8 3c-6.1 6.6-6.3 6.9-8.1 7-2.8.3-3.4-.2-6.8-5.3l-3.2-4.8-2.8-.3-2.8-.3-1.3 2.7-1.3 2.7-2.3-.7c-1.8-.6-3.6-1.3-5.3-2.1l-3-1.5v-5.7l26.6.1 26.6.1.1 2.7c.1 3.2.2 3.1-4.2 5.6zm50-18-2.7 10.5c-1.1.1-2.1.2-3.2.1h-3.2L1338 753l-4.9 11.8-.6 1.4-2.1-3.4-2.1-3.4v-27.7l-.8.2a272.5 272.5 0 0 1-91.4.3c-.1.1 0 6.5.2 14.4l.3 14.2-1.7 2.6-1.8 2.7a67.6 67.6 0 0 1-9.2-21.1l-.7-2.9-3.1.2-3.1.3-.8-3.7-1.1-6.8-.3-3.2-2.6-2.3-3.3-2.8c-.5-.4-.7-1.1-.7-1.7v-1.2l12.5.1 12.5.1.4 1.3.4 1.3 4.3.2 16.8.5 12.5.3 3.2-5 3.3-5h4.2l-.1-10.4-.1-10.4-5.5-2.4c-17.7-7.8-28.1-16.7-32-27.5-.8-2.2-.8-3-1-13-.1-9.9-.1-10.8.6-13 1.4-5 5.3-8.9 10.3-10.2 1.7-.5 6.2-.5 29.8-.5l27.8.1 3.1 1.5c3.7 1.8 5.4 3.1 7.5 5.9 2.4 3.2 3.1 5.7 3.1 11.8a88 88 0 0 1-1.5 19.2c-1.3 4.1-3.3 8-5.8 11.5a53.3 53.3 0 0 1-22.4 15.7l-2.4.9.1 10.5.1 10.5 2.2.2 2.2.2 3 4.5 2.9 4.5h13.4c7.4 0 13.9.1 14.5.2 1 .2 1.2.1 2.2-1.6l1.2-1.8h11.5c8.9 0 11.5.1 11.5.4-.3-.1-1.6 4.8-3.1 10.4z"/><path id="prefix__Path_8580" class="prefix__st2" d="M995 624.1c-6.3.9-10 1.9-10 1.9"/><path id="prefix__Path_8581" class="prefix__st2" d="M1560.1 627s-3.2-.7-8.9-1.3"/><path id="prefix__Path_8582" d="M1550.6 617.7a293.3 293.3 0 0 0-41-139.9l-.4-.8c3.1-9.3 15.8-48.2 25.9-92.7 13.7-60.4 22.4-131-4.2-152.2 0 0-46-3.4-107.6 57a413.2 413.2 0 0 0-45.6 54.1l-4.3-1.4A312.1 312.1 0 0 0 1297 327c-7.8-.6-36.9-.6-46.4 0a269.9 269.9 0 0 0-75.7 14.9l-2.8 1a407 407 0 0 0-47.1-53.7c-64.1-60.7-111.8-57.2-111.8-57.2-28.2 21.9-18.6 95.7-4 158.1 9.6 41.3 21.4 77.6 25.8 90.7l-1.1 2.2A362.6 362.6 0 0 0 995 624.1c26.1-3.8 98-8.1 151.9 49.9 0 0 35.6-94 131.6-94s116.5 94 116.5 94a213.1 213.1 0 0 1 156.1-48.3l-.5-8zm-496.7-174.6s-37.4-93.5-27.8-146.9c1.6-9 4.6-16.9 9.3-22.9 0 0 42.4 4.2 110.8 80.2 0 0-13 6.3-30.4 19.7l-.2.1a240.4 240.4 0 0 0-61.7 69.8zM1212.6 582c-.6 1.2-3.6 2.5-7 3s-13.8.2-19.7-.5a207 207 0 0 1-60.1-17.3c-9.2-4.5-15.8-9-20.7-13.9l-2.8-2.9-.3-3.8c-.5-6.6-.4-17 .4-20.7.5-3.1 1.6-6.1 3.1-8.8.8-1 .8-1 4.4-1 4.4 0 8.1.7 14.1 2.6 12.3 3.8 30.6 13 52.9 26.4 18.4 11 25.3 16.4 30.6 23.8 3.6 4.6 6 11.1 5.1 13.1zm235.6-33.1c-.3 1.6-5 6.4-9.7 9.9-13.8 10.1-38.5 19.5-63.6 24-14.3 2.6-28.6 3-32.9.9-2.8-1.4-3.2-2.5-2.2-6.1 2.1-7.5 8.9-15.7 19.5-23.4 5.4-3.9 27.3-17.2 37.5-22.8a132.5 132.5 0 0 1 39.6-16c2.9-.4 6.4-.5 7.5 0 1.8.7 3.8 6 4.6 12.4.4 3.4.2 18.4-.3 21.1zm-16.6-175.7-.2-.1c-16.8-13.4-29.4-19.7-29.4-19.7 66.1-76 107-80.2 107-80.2a54.2 54.2 0 0 1 9 22.9c9.3 53.4-26.8 147-26.8 147a238.2 238.2 0 0 0-59.6-69.9z" fill="#ffa409"/><path id="prefix__Path_8583" class="prefix__st2" d="m1377.6 343.2-.5.7"/><path id="prefix__Path_8584" class="prefix__st2" d="m1509.1 476.9-.7 2.1"/><g id="prefix__Group_934"><g id="prefix__Group_933"><g id="prefix__Group_932"><path id="prefix__Path_8585" class="prefix__st4" d="M1518.1 296.1c-7.8-1-44.7-1.2-86.5 77.1l-.2-.1c-16.8-13.4-29.4-19.7-29.4-19.7 66.1-76 107-80.2 107-80.2a53 53 0 0 1 9.1 22.9z"/></g><path id="prefix__Path_8586" class="prefix__st5" d="M1491.3 443.1a237.3 237.3 0 0 0-59.7-69.9c41.8-78.3 78.6-78.1 86.5-77.1 9.3 53.5-26.8 147-26.8 147z"/><path id="prefix__Path_8587" class="prefix__st5" d="m1519.6 296.4-1.5-.3 1.5.3z"/></g></g><path id="prefix__Path_8588" class="prefix__st2" d="m1175.1 347.1-3.1-4.2"/><path id="prefix__Path_8589" class="prefix__st2" d="m1035 480.8 1.8 5.2"/><g id="prefix__Group_937"><g id="prefix__Group_936"><g id="prefix__Group_935"><path id="prefix__Path_8590" class="prefix__st4" d="M1146.2 353.4s-13 6.3-30.4 19.7l-.2.1c-43.3-78.4-81.4-78.1-89.6-77.1 1.6-9 4.6-16.9 9.3-22.9.1 0 42.5 4.2 110.9 80.2z"/></g><path id="prefix__Path_8591" class="prefix__st5" d="M1115.7 373.2a239.7 239.7 0 0 0-61.8 69.9s-37.4-93.5-27.8-147c8.1-1 46.3-1.2 89.6 77.1z"/><path id="prefix__Path_8592" class="prefix__st5" d="m1026.1 296.1-1.6.3 1.6-.3z"/></g></g><path id="prefix__Path_8593" class="prefix__st1" d="M1390.1 495s-32 2-28-23 29-28 36-27 35 11 30 32-12 17-16 18-22 0-22 0z"/><path id="prefix__Path_8594" class="prefix__st1" d="M1154.1 495s-32 2-28-23 29-28 36-27 35 11 30 32-12 17-16 18-22 0-22 0z"/></g></svg>