<svg width="32" height="32" xmlns="http://www.w3.org/2000/svg"><g fill="none" fill-rule="evenodd"><circle fill="#D65892" fill-rule="nonzero" cx="16" cy="16" r="16"/><path d="M13.8 7c1.9.2 4.3 1.2 6.7 3 2.4 1.7 4.1 3.7 4.8 5.5.6 1.3.6 2.4 0 3.2L21.7 24c-.5.7-1.5 1-2.9 1-1.8-.2-4.3-1.2-6.7-3a14.7 14.7 0 0 1-4.8-5.5c-.6-1.3-.6-2.4 0-3.2L10.8 8c.5-.7 1.5-1 2.9-1zm7.8 12.5a.1.1 0 0 0 0 .2c.7.2 1.3.2 1.9.1a.1.1 0 0 0 0-.3h-2zm-1.2-.2a.1.1 0 0 0 0 .2l.6.1a.1.1 0 0 0 0-.2l-.4-.2a.1.1 0 0 0-.2.1zm-9-10.9c-.4.7-.4 1.5 0 2.5a14 14 0 0 0 4.7 5.3c2.3 1.7 4.6 2.7 6.4 2.8 1 .1 1.9 0 2.3-.7.5-.6.4-1.5 0-2.5C24 14 22.4 12 20 10.5a13.6 13.6 0 0 0-6.4-2.8c-1-.1-1.9 0-2.3.7zm-.8 2.5a.1.1 0 0 0 0 .1 11 11 0 0 0 3.4 4.7l.2.2a35 35 0 0 0 .4.4h.2a.1.1 0 0 0 0-.2l-.3-.3-.2-.2a11 11 0 0 1-3.5-4.7.1.1 0 0 0-.2 0zm5.3-.3c.9 0 2 .5 3.2 1.4a7 7 0 0 1 2.3 2.6c.2.5.2 1 0 1.2-.2.3-.6.4-1 .3-1 0-2.1-.6-3.2-1.4a7 7 0 0 1-2.4-2.6c-.2-.5-.2-1 0-1.2.2-.3.6-.4 1-.3zm-5.4-.8a.1.1 0 0 0-.1.1v.6a.1.1 0 1 0 .3 0 4 4 0 0 1 0-.6.1.1 0 0 0-.2-.1z" fill="#FFF"/></g></svg>