<svg data-name="Layer 1" xmlns="http://www.w3.org/2000/svg" viewBox="0 0 3756.1 3756.5"><path d="M4128 2249.8c0 1037.2-840.7 1878-1878 1878S372 3287 372 2249.9s840.8-1878 1878-1878 1878 840.7 1878 1878z" transform="translate(-372 -371.8)" fill="#fff"/><path data-name="149931032" d="M2250 371.8c-1036.9 0-1879.1 842-1877.8 1878a1883 1883 0 0 0 95.3 593h562V1263L2250 2483.6 3470.5 1263v1579.9h562c62.1-186.5 95-385.9 95.4-593.1C4129.7 1212.8 3287 372 2250 372z" transform="translate(-372 -371.8)" fill="#f26822"/><path data-name="149931160" d="m1969.3 2764.2-532.7-532.7v994.1H645.1c329.6 540.9 925.3 902.6 1604.9 902.6s1275.3-361.8 1605-902.6h-791.8v-994.1l-532.6 532.7-280.7 280.6-280.6-280.6z" transform="translate(-372 -371.8)" fill="#4d4d4d"/></svg>