<?xml version="1.0" encoding="UTF-8" standalone="no"?>
<svg
   version="1.1"
   width="275.12476"
   height="275.51074"
   id="svg10"
   sodipodi:docname="ZEN.svg"
   inkscape:version="1.1 (c68e22c387, 2021-05-23)"
   xmlns:inkscape="http://www.inkscape.org/namespaces/inkscape"
   xmlns:sodipodi="http://sodipodi.sourceforge.net/DTD/sodipodi-0.dtd"
   xmlns="http://www.w3.org/2000/svg"
   xmlns:svg="http://www.w3.org/2000/svg">
  <defs
     id="defs14" />
  <sodipodi:namedview
     id="namedview12"
     pagecolor="#ffffff"
     bordercolor="#666666"
     borderopacity="1.0"
     inkscape:pageshadow="2"
     inkscape:pageopacity="0.0"
     inkscape:pagecheckerboard="0"
     showgrid="false"
     inkscape:zoom="1.03875"
     inkscape:cx="556.43803"
     inkscape:cy="422.62335"
     inkscape:window-width="3440"
     inkscape:window-height="1372"
     inkscape:window-x="0"
     inkscape:window-y="0"
     inkscape:window-maximized="1"
     inkscape:current-layer="svg10" />
  <g
     stroke="none"
     fill-rule="evenodd"
     id="g8"
     transform="translate(-62.500255,-62.274422)">
    <path
       d="m 195.4,111.9 a 88.4,88.4 0 0 0 -73.6,128.9 c 5.6,10.8 6.5,11.2 11,4.5 24,-35.6 65,-53.3 108,-46.7 6.9,1.1 1.2,-18.1 -8.5,-28.4 -27,-28.9 -74.8,-10.2 -76,29.7 -0.3,6.8 -0.1,6.4 -4.6,10.3 l -7,6.5 c -5.6,5.3 -6.6,4.7 -8.5,-4.6 -10.1,-49 39.5,-90.7 87,-72.9 6.5,2.5 5.3,2.9 20.3,-6.6 7.7,-4.8 7.4,-5.6 -3,-10.9 a 88.6,88.6 0 0 0 -45.1,-9.8"
       fill="#f8f9f9"
       id="path2" />
    <path
       d="m 188.2,111 a 89.8,89.8 0 0 0 -65.6,134.4 c 5,8.5 6,8.7 10.7,1.8 A 106.6,106.6 0 0 1 239.5,200 c 5.2,0.9 6.5,-0.6 5.7,-6 a 45.6,45.6 0 0 0 -90.4,4.8 c -0.3,7.3 -0.1,7 -4.9,11.1 l -5.3,4.9 c -2,2 -4,3.4 -4.8,3 -2.8,-1 -4.2,-19.6 -2.3,-29.3 8,-40 49,-62.3 86.7,-47.3 5.2,2 8.7,0.7 24.4,-10.1 4,-2.8 3.3,-4.7 -3.3,-8.6 A 92,92 0 0 0 188.2,111 m 25,1.8 a 84.8,84.8 0 0 1 34.5,13.2 c 2.7,2.4 2.5,2.6 -13.3,12.3 -5,3 -5.5,3 -11.2,1 -47.5,-17.9 -97.1,23.7 -87,72.8 1.9,9.3 3,9.9 8.5,4.6 l 7,-6.5 c 4.5,-4 4.3,-3.5 4.5,-10.3 1.7,-51.4 73.7,-60 86.6,-10.3 1.8,6.8 1.2,9.5 -2,9 -43,-6.6 -84,11.1 -108,46.7 -4.5,6.7 -5.4,6.3 -11,-4.5 a 88.3,88.3 0 0 1 91.4,-128 m 57.6,38.7 c -0.9,0.9 -5.2,7.4 -11,16.9 -1.6,2.3 -1.5,3 0.6,9.2 a 64.5,64.5 0 0 1 -84.6,82.1 c -4.7,-1.8 -4.5,-1.9 -15.6,5.1 -12.7,8.1 -12.7,8.3 0,14.7 69.2,34.6 146.4,-29.8 125.1,-104.5 -3,-10.6 -10.2,-24.6 -12.7,-24.6 -0.3,0 -1.1,0.5 -1.8,1.1 m -60.4,55 A 94.6,94.6 0 0 0 169.2,221 c -5.9,4 -6,4.9 -1.5,9.7 a 44.8,44.8 0 0 0 69.4,-5.6 c 5,-7.3 7.3,-14.7 5.3,-16.5 -2.1,-2 -21.3,-3.3 -32,-2.2"
       fill="#18b6bf"
       id="path4" />
    <path
       d="m 184,62.8 c -13,1.8 -27.4,5.2 -33.1,7.7 l -5.5,2.3 a 139.5,139.5 0 0 0 -82.6,112 331,331 0 0 0 0.3,34 124.8,124.8 0 0 0 11.5,40 c 4,8 12.1,21.3 15.1,25 a 144.3,144.3 0 0 0 57.6,44.5 c 31.4,14.1 83.3,12.3 113.9,-4.2 a 137.6,137.6 0 0 0 75.6,-104.7 c 1.1,-6.4 1.1,-32.3 0,-38.8 A 122.9,122.9 0 0 0 318.5,128.9 137.3,137.3 0 0 0 268.8,80 122.3,122.3 0 0 0 219.6,63.3 c -6.9,-1 -29.8,-1.4 -35.6,-0.6 m 28.7,48.4 c 14,2 33,9.6 37.5,14.8 2.2,2.7 2.2,2.8 -11.2,11.2 -9.5,6 -9.7,6 -14.8,4 a 63.7,63.7 0 0 0 -86.7,47.3 c -2,9.7 -0.5,28.3 2.3,29.3 0.8,0.4 2.8,-1 4.8,-3 0.9,-1 3.3,-3.1 5.3,-4.9 4.8,-4 4.6,-3.8 5,-11.1 a 45.6,45.6 0 0 1 90.4,-4.9 c 0.7,5.5 -0.6,7 -5.8,6.1 a 106.6,106.6 0 0 0 -106.2,47.2 c -5.1,7.6 -7.6,6 -14.7,-9.3 -29.8,-64.3 24.2,-137 94,-126.7 m 61.7,40.3 c 7.8,8.4 14.5,31 14.5,48.9 a 88.9,88.9 0 0 1 -128.6,79.1 c -12.7,-6.4 -12.7,-6.6 0,-14.7 11,-7 10.9,-7 15.6,-5 a 64.3,64.3 0 0 0 84.6,-82.1 c -2.1,-6.2 -2.2,-7 -0.7,-9.3 9.2,-14.7 11.5,-18 13,-18 0.3,0 1,0.5 1.6,1.1 m -43.4,55 c 12.6,1.1 13.6,1.9 11.4,8.5 a 44.8,44.8 0 0 1 -74.6,15.7 c -4.5,-4.8 -4.4,-5.8 1.5,-9.7 a 95.9,95.9 0 0 1 61.7,-14.6"
       fill="#041443"
       id="path6" />
  </g>
</svg>
